<svg width="72" height="70" viewBox="0 0 72 70" fill="none" xmlns="http://www.w3.org/2000/svg">
<path d="M10.4877 12.9128C11.2038 12.0718 12.4661 11.9706 13.3071 12.6868L48.3291 42.5105C49.1701 43.2266 49.2713 44.4889 48.5552 45.3299C47.839 46.1708 46.5767 46.272 45.7358 45.5559L10.7137 15.7322C9.87273 15.016 9.77154 13.7537 10.4877 12.9128Z" fill="#14AE5C"/>
<path d="M50.0987 2.2692C51.0188 1.65804 52.2601 1.90847 52.8713 2.82856L67.2571 24.486C67.8683 25.4061 67.6179 26.6474 66.6978 27.2586C65.7777 27.8698 64.5364 27.6193 63.9252 26.6993L49.5393 5.04177C48.9282 4.12168 49.1786 2.88036 50.0987 2.2692Z" fill="#14AE5C"/>
<path d="M4.8543 57.3834C5.14442 56.3176 6.2436 55.6888 7.30939 55.9789L32.3965 62.8079C33.4623 63.098 34.0911 64.1972 33.801 65.263C33.5109 66.3288 32.4117 66.9576 31.3459 66.6675L6.25878 59.8385C5.19299 59.5484 4.56418 58.4492 4.8543 57.3834Z" fill="#14AE5C"/>
</svg>
