<svg width="22" height="25" viewBox="0 0 22 25" xmlns="http://www.w3.org/2000/svg">
    <g fill="none" fill-rule="evenodd">
        <path d="M5.603 17.98c-1.567-.462-3.52-1.063-4.603.502 1.543-.23 2.09 1.017 4.494 2.548 2.673 1.704 4.8 1.793 5.506 3.35.705-1.557 2.833-1.646 5.506-3.35 2.403-1.531 2.95-2.778 4.494-2.548-1.082-1.565-3.037-.964-4.603-.503-1.657.487-3.557 1.116-5.397.064-1.84 1.052-3.74.423-5.397-.064m0-10.196C7.26 7.295 9.159 6.665 11 7.72c1.84-1.055 3.74-.425 5.397.063 1.566.461 3.52 1.061 4.603-.503-1.544.23-2.091-1.016-4.494-2.548C13.833 3.03 11.705 2.94 11 1.381c-.706 1.559-2.833 1.648-5.506 3.351C3.09 6.264 2.544 7.511 1 7.28c1.082 1.564 3.036.964 4.603.503m13.76.483a8.546 8.546 0 0 1 1.356 4.616 8.548 8.548 0 0 1-1.357 4.615c-.42-.052-.867-.018-1.314.06a7.648 7.648 0 0 0 1.605-4.675 7.654 7.654 0 0 0-1.605-4.677c.447.08.894.113 1.314.06m-15.41-.06a7.654 7.654 0 0 0-1.605 4.677c0 1.742.594 3.357 1.605 4.675-.448-.078-.895-.112-1.315-.06a8.565 8.565 0 0 1-1.356-4.615c0-1.687.496-3.265 1.356-4.616.42.052.867.019 1.315-.06" fill="#DBB86E"/>
        <path d="M14.34 20.218a6.54 6.54 0 0 0 1.475-.447c.457-.195.862-.41 1.174-.58l-2.648 1.027zm-9.33-1.027c.31.17.718.385 1.175.58.456.193.962.365 1.473.447L5.01 19.191zm7.154 2.032c.362-.225.7-.486 1.017-.811-.365.019-.722.003-1.082-.088A3.035 3.035 0 0 1 11 19.787c-.377.281-.74.448-1.099.537-.36.09-.717.107-1.082.088.317.325.654.586 1.016.81.363.225.748.41 1.165.58.416-.17.801-.355 1.164-.58zM3.119 17.47c-.819-.012-1.578.228-2.119 1.01.772-.114 1.294.14 1.924.614.63.473 1.369 1.169 2.57 1.935 1.336.851 2.537 1.3 3.49 1.73.955.43 1.663.84 2.016 1.62.352-.78 1.06-1.19 2.015-1.62.954-.43 2.155-.879 3.49-1.73 1.202-.766 1.94-1.462 2.57-1.935.631-.475 1.153-.728 1.925-.614-.542-.782-1.301-1.022-2.12-1.01-.82.012-1.7.278-2.483.507-.829.245-1.718.524-2.63.61-.912.087-1.847-.02-2.767-.545-.92.525-1.855.632-2.768.545-.911-.086-1.801-.365-2.63-.61-.783-.23-1.663-.495-2.483-.507zM16.989 6.57c-.312-.17-.717-.386-1.174-.58a6.592 6.592 0 0 0-1.474-.448l2.648 1.028zM7.66 5.542a6.568 6.568 0 0 0-1.474.448c-.457.194-.864.41-1.175.58l2.648-1.028zM11 3.96c-.417.17-.802.354-1.165.578-.362.224-.7.487-1.016.812.365-.02.722-.004 1.082.087.36.09.722.255 1.099.538a3.038 3.038 0 0 1 1.099-.538c.36-.091.717-.106 1.082-.087a5.31 5.31 0 0 0-1.017-.812A7.781 7.781 0 0 0 11 3.96zM5.603 7.782c.828-.243 1.718-.522 2.629-.61.913-.086 1.848.02 2.768.547.92-.527 1.855-.633 2.766-.546.913.087 1.802.366 2.631.61.783.23 1.662.496 2.482.508.82.012 1.58-.23 2.121-1.012-.772.115-1.294-.139-1.925-.613-.63-.474-1.368-1.168-2.57-1.934-1.335-.852-2.536-1.3-3.49-1.73-.954-.43-1.663-.842-2.015-1.621-.353.779-1.06 1.19-2.015 1.621-.954.43-2.155.878-3.492 1.73-1.2.766-1.94 1.46-2.57 1.934-.63.474-1.151.728-1.923.613.54.782 1.3 1.024 2.119 1.012.82-.012 1.7-.278 2.484-.509zm13.76.483c.43.676.769 1.408 1 2.182a8.472 8.472 0 0 1 0 4.867 8.713 8.713 0 0 1-1 2.183 3.727 3.727 0 0 0-.647-.02c-.22.012-.444.04-.668.078a7.815 7.815 0 0 0 1.181-2.177 7.543 7.543 0 0 0 .424-2.497c0-.873-.149-1.712-.424-2.498a7.849 7.849 0 0 0-1.181-2.179c.224.04.447.068.668.08.22.012.435.007.646-.02zm-15.411-.06a7.822 7.822 0 0 0-1.181 2.178 7.545 7.545 0 0 0-.424 2.498c0 .871.149 1.71.424 2.497.275.787.675 1.52 1.181 2.177a5.718 5.718 0 0 0-.668-.078 3.733 3.733 0 0 0-.647.02 8.713 8.713 0 0 1-1-2.183 8.472 8.472 0 0 1 0-4.867c.23-.774.57-1.506 1-2.182.21.026.426.03.647.02.22-.013.443-.04.668-.08z" stroke="#151616" stroke-width=".8" stroke-linecap="round" stroke-linejoin="round"/>
        <path d="M11 21.38a6.977 6.977 0 0 0 1.067-.574c.333-.222.642-.483.933-.805a3.059 3.059 0 0 1-.992-.087A2.729 2.729 0 0 1 11 19.381a2.729 2.729 0 0 1-1.008.533c-.33.09-.657.106-.992.087.292.322.601.583.933.805.331.222.686.406 1.067.575m0-17c.381.169.736.352 1.067.574.333.223.642.484.933.805a3.032 3.032 0 0 0-.992.087c-.33.09-.663.254-1.008.534a2.718 2.718 0 0 0-1.007-.534A3.037 3.037 0 0 0 9 5.76c.292-.321.601-.582.933-.805A6.977 6.977 0 0 1 11 4.381" fill="#151616"/>
    </g>
</svg>
