<?xml version="1.0" encoding="UTF-8"?>
<svg width="434px" height="43px" viewBox="0 0 434 43" version="1.1" xmlns="http://www.w3.org/2000/svg" xmlns:xlink="http://www.w3.org/1999/xlink">
    <title>SurahTitle-Light</title>
    <g id="Symbols" stroke="none" stroke-width="1" fill="none" fill-rule="evenodd">
        <g id="TEXT" transform="translate(-20.000000, -341.000000)">
            <g id="Group-2" transform="translate(17.000000, 29.000000)">
                <g id="SurahTitle-Light" transform="translate(3.301507, 313.121903)">
                    <g id="Group-2" transform="translate(0.000000, -0.000000)">
                        <path d="M0,41.4847063 L432.645354,41.4847063 L432.645354,0 L0,0 L0,41.4847063 Z M1.29147867,40.2645679 L431.353875,40.2645679 L431.353875,1.22013842 L1.29147867,1.22013842 L1.29147867,40.2645679 Z" id="Fill-2" fill="#D7B93E"></path>
                        <path d="M1.29147867,40.2645679 L431.353875,40.2645679 L431.353875,1.22013842 L1.29147867,1.22013842 L1.29147867,40.2645679 Z M0,41.4847063 L432.645354,41.4847063 L432.645354,0 L0,0 L0,41.4847063 Z" id="Stroke-3" stroke="#000000" stroke-width="0.283" stroke-linecap="round" stroke-linejoin="round"></path>
                        <g id="Group-7" transform="translate(313.294912, 2.440277)">
                            <g id="Group-5" transform="translate(13.010732, 0.000000)">
                                <path d="M85.9121963,0 L17.9410467,0 C8.07207445,0 0,8.29295391 0,18.4277239 C0,28.5624939 8.07766066,36.8554478 17.9410467,36.8554478 L85.9121963,36.8554478 C95.7774443,36.8554478 103.853243,28.5624939 103.853243,18.4258113 C103.853243,8.29295391 95.7793064,0 85.9121963,0 M101.739793,18.4258113 C101.739793,27.3633053 94.6117884,34.6865803 85.9121963,34.6865803 L17.9410467,34.6865803 C9.24145455,34.6865803 2.11158764,27.3633053 2.11158764,18.4277239 C2.11158764,9.49023001 9.23959248,2.16886756 17.9410467,2.16886756 L85.9121963,2.16886756 C94.6136504,2.16886756 101.739793,9.48831742 101.739793,18.4258113" id="Fill-5" fill="#D7B93E"></path>
                                <path d="M85.9121963,0 L17.9410467,0 C8.07207445,0 0,8.29295391 0,18.4277239 C0,28.5624939 8.07766066,36.8554478 17.9410467,36.8554478 L85.9121963,36.8554478 C95.7774443,36.8554478 103.853243,28.5624939 103.853243,18.4258113 C103.853243,8.29295391 95.7793064,0 85.9121963,0 Z M101.739793,18.4258113 C101.739793,27.3633053 94.6117884,34.6865803 85.9121963,34.6865803 L17.9410467,34.6865803 C9.24145455,34.6865803 2.11158764,27.3633053 2.11158764,18.4277239 C2.11158764,9.49023001 9.23959248,2.16886756 17.9410467,2.16886756 L85.9121963,2.16886756 C94.6136504,2.16886756 101.739793,9.48831742 101.739793,18.4258113 Z" id="Stroke-6" stroke="#000000" stroke-width="0.283" stroke-linecap="round" stroke-linejoin="round"></path>
                                <path d="M85.9121963,2.16848504 L17.9410467,2.16848504 C9.23959248,2.16848504 2.11158764,9.48984749 2.11158764,18.4273414 C2.11158764,27.3629227 9.24145455,34.6861978 17.9410467,34.6861978 L85.9121963,34.6861978 C94.6117884,34.6861978 101.739793,27.3629227 101.739793,18.4254288 C101.739793,9.48984749 94.6136504,2.16848504 85.9121963,2.16848504" id="Fill-7" fill="#000000"></path>
                                <path d="M85.9121963,2.16848504 L17.9410467,2.16848504 C9.23959248,2.16848504 2.11158764,9.48984749 2.11158764,18.4273414 C2.11158764,27.3629227 9.24145455,34.6861978 17.9410467,34.6861978 L85.9121963,34.6861978 C94.6117884,34.6861978 101.739793,27.3629227 101.739793,18.4254288 C101.739793,9.48984749 94.6136504,2.16848504 85.9121963,2.16848504 Z" id="Stroke-8" stroke="#000000" stroke-width="0.283" stroke-linecap="round" stroke-linejoin="round"></path>
                                <path d="M45.6376655,31.1915286 C44.2709059,31.5989085 42.8818015,31.7327892 41.541111,31.4726781 C41.3977316,31.445902 41.2469039,31.4095629 41.0960762,31.3674861 C39.9546271,31.0557353 39.0552472,30.4188457 38.520833,29.4759429 C37.9771085,28.5177395 37.7871774,27.217184 38.0739362,25.5838393 C37.5786255,25.6909439 37.0665562,25.6335664 36.6047628,25.4270076 C36.2807626,27.3874038 36.5414524,28.9977975 37.2434529,30.2352378 C37.9864189,31.5453562 39.1986266,32.4155809 40.7124897,32.8325237 C40.8856622,32.8803382 41.0737313,32.922415 41.2692487,32.9625792 C42.866905,33.2724174 44.5018026,33.1136732 46.0920106,32.6336152 C47.5835289,32.1841585 48.3711846,31.9527361 50.0749788,31.7538276 C51.7098765,31.564482 53.0636015,31.948911 52.8922911,33.0620335 C54.0653953,31.1819657 52.9276704,29.7704805 51.432428,29.7570924 C53.6371192,28.5636415 57.2141561,28.4201979 57.6666391,30.2295001 C57.7020185,30.3710311 57.7020185,30.5240376 57.6517426,30.6827819 C57.6927081,30.1912484 57.0353973,29.9942525 56.681604,30.2103743 C56.5009832,30.321304 56.3222244,30.5393383 56.2347071,30.8224004 C56.0894657,31.3043709 56.2477416,31.8092925 56.6182936,32.126781 C57.3053975,32.7215939 58.3462948,32.5896258 58.9272607,31.9010964 C59.0036056,31.8092925 59.0762263,31.7098383 59.1413988,31.6046463 C59.8285027,33.1538374 62.0294697,32.9262402 62.0965042,31.093987 C61.9214696,31.6639363 61.2064347,31.7366144 60.6701584,31.3445352 C60.3331237,31.0958996 60.0631235,30.6617435 59.7912613,30.1816855 C59.1562953,29.0570875 58.5771915,28.0740206 57.3091217,27.6341268 C55.5178101,27.0106252 52.3634631,27.4103548 50.2630479,28.9671962 C50.5721516,28.0701954 50.5423584,27.1617192 50.1457375,26.4808401 C49.8515304,25.9720934 49.2221507,25.576189 48.6244261,25.4442209 C47.7567014,25.2529627 46.846149,25.7903981 46.6469075,26.6893115 C46.5370454,27.1712821 46.7064938,27.674291 47.1068389,27.966916 C47.3395977,28.1390484 47.6114599,28.2040761 47.8181497,28.1811252 C48.2296672,28.1352232 48.6393227,27.5729242 48.3171845,27.2057085 C48.4512536,27.3013376 48.542495,27.4199177 48.5964951,27.5595361 C48.8404263,28.1600868 48.6914606,28.7969764 48.2985638,29.3784013 C47.6524255,30.3366046 46.6971834,30.8759527 45.6376655,31.1915286" id="Fill-9" fill="#D7B93E"></path>
                                <path d="M96.0390652,19.0959799 C96.1843067,17.9446058 96.1731343,16.7817562 96.0129962,15.6495079 C95.7374098,13.7082375 94.3147882,11.809044 92.5700284,11.2333569 C91.8252003,10.9866339 91.1138894,11.0153226 90.598096,11.4992057 C90.491958,11.59866 90.413751,11.726803 90.3690613,11.8874598 C90.598096,11.4513912 91.2535447,11.65795 91.4323034,12.0404663 C91.5235449,12.2336371 91.5570622,12.5186117 91.4788552,12.7997612 C91.3447861,13.285557 90.942579,13.6202588 90.4621649,13.6776362 C89.5702332,13.7885659 88.7714051,13.0923862 88.6522326,12.1877351 C88.5721636,11.5642335 88.7211292,10.8221518 89.087957,10.3669574 C90.0022335,9.22132103 92.0747177,9.03197545 93.8232016,10.2024754 C93.1584426,9.30164946 92.3540282,8.50219034 91.4229931,7.84234968 C89.9370611,6.78660463 88.2220944,6.63168551 86.6244381,7.30682683 C85.4215407,7.81748612 84.8256783,9.09891581 85.6878168,9.69372869 C83.1516771,9.26722299 83.4775394,6.74261525 85.0863681,5.94124355 C84.5594022,5.96801969 84.049195,6.04261038 83.5613326,6.15927785 C80.9451239,6.78469204 79.3660884,8.48880227 80.0904337,11.2983847 C82.2914007,10.6901837 84.367609,11.0554868 85.533265,12.101669 C88.0898874,14.3967669 88.3934048,19.2681123 90.3839579,18.8817708 C87.36368,19.7749464 86.2538861,17.7093583 85.2483682,15.2459531 C84.4923677,13.3926615 82.8798149,11.8530333 80.7235376,12.5473005 C83.4291256,12.8762645 84.3452642,15.8159025 85.3991959,18.1033501 C86.1142309,19.6544538 87.1271971,20.8287789 88.4474049,20.7350624 C86.1347136,22.3454561 83.9449191,20.6489962 83.2689876,18.2487063 C82.9114701,16.9825773 82.7215389,15.3128935 80.8706411,13.8402056 C81.5149174,14.6740912 81.956228,15.6437701 82.2429869,16.6555258 C82.6694009,18.1664653 82.7252631,19.3274023 83.386298,20.6030943 C84.0100915,21.8080207 85.0379543,22.5003752 85.8014031,22.4525607 C86.0695412,23.3017469 85.5928512,23.8468327 84.9690577,23.8850843 C85.2874717,24.8356374 84.2800917,25.0900107 84.5184367,25.7135124 C84.2800917,25.0900107 83.3714014,25.6083204 82.9729184,24.6902812 C82.4943663,25.1014862 81.7830555,25.0345459 81.4143656,24.2255239 C82.0065039,23.72634 82.2969869,22.5003752 81.956228,21.1826065 C81.5931244,19.7845093 80.8631928,18.8970715 80.1723648,17.4932365 C79.7105714,16.5503338 79.3921573,15.5328404 79.3102263,14.4713576 C78.9303639,16.8448714 79.9005025,18.2008917 80.4796064,19.3752169 C81.5763657,21.605287 81.1015378,24.380443 78.3382256,24.8203367 C79.3679504,23.9654128 79.328847,22.3970958 78.8223639,20.7618385 C78.0775358,18.3481605 76.7964314,15.5557914 78.5579499,13.4232629 C76.520845,14.423543 76.360707,16.6784768 77.0385006,18.5642823 C77.9360184,21.0716768 78.4946395,23.3591244 75.6903617,24.8203367 C77.4053284,23.7091268 74.3943608,19.9336907 74.742568,16.4642676 C74.8915336,14.9992301 75.9938792,13.4175251 77.7553976,12.3197033 C77.0478109,9.10656613 78.7087776,6.7368775 81.1201585,5.46883589 C80.1034682,5.16091025 79.6640196,4.07073872 80.6862962,3.1986015 C80.5671237,3.82592828 81.2188482,4.29068561 82.1815385,4.38822727 C83.2987807,4.50106959 84.3620228,4.41309083 85.561196,4.41309083 C86.4903691,4.41309083 87.4493352,4.53549606 88.4008531,4.79178199 C90.5683029,5.37129423 92.3838213,6.47102866 93.8157533,7.90737746 C94.1006501,8.19235212 94.3706503,8.49262743 94.6220298,8.80437824 C94.6257539,7.7046438 95.5344442,6.96064955 96.6330656,7.74289544 C95.8807892,7.80601063 95.7132029,8.92487088 96.0148583,10.2101257 C96.3109274,11.4609541 96.8192726,12.5511256 97.1563073,13.847856 C97.2922385,14.3680782 97.3965144,14.8959507 97.4747213,15.4314736 C97.6106525,16.3896769 97.6497559,17.3708313 97.5901697,18.3519857 C97.0874107,18.6273974 96.6852036,19.004176 96.3407206,19.4670208 C96.245755,19.3312275 96.1507894,19.2164726 96.0390652,19.0959799" id="Fill-10" fill="#D7B93E"></path>
                                <path d="M91.4930069,27.286037 C92.740594,26.2647184 93.6846636,25.2185362 94.0459052,23.761149 C94.3214916,22.6652398 94.4145951,21.0299825 93.191215,20.4810716 C92.3532834,20.1062056 91.3198344,20.666592 91.3459034,21.6936483 C91.573076,21.2441916 92.1745246,21.1925519 92.6307318,21.5540298 C93.3010771,22.0799898 93.0832149,23.116609 92.4352145,23.5660657 C91.9250072,23.9160681 91.2937654,23.8338271 90.7649375,23.4264473 C90.2733509,23.0496687 89.9884542,22.3687896 90.0573508,21.617145 C90.1914198,20.0985552 91.202524,19.0313347 92.450111,18.7425349 C90.9139031,17.562472 91.440869,14.527205 93.5952842,15.2099966 C93.2899047,15.1545317 92.9696286,15.5485236 92.89887,16.0496199 C92.7722492,16.9561836 94.0291466,18.0750439 94.6883195,18.6889826 C95.3903199,19.3449981 96.0941825,20.0163142 96.2282515,21.0299825 C97.5782524,17.7250414 100.425358,18.348543 100.710255,20.2400863 C99.633978,19.647186 98.6694256,20.6838052 97.6583215,22.0245249 C97.168597,22.6748027 96.7161139,23.3193427 96.2654929,23.9581449 C95.3493544,25.2587004 94.4723193,26.5458679 93.3290082,27.6532526 C92.7573526,27.3988793 92.1186625,27.2783866 91.4930069,27.286037" id="Fill-11" fill="#D7B93E"></path>
                                <path d="M82.5535802,30.7451321 C84.9519266,28.3123283 89.6145505,26.7784378 88.43586,25.4453684 C90.0372404,25.5830743 90.4171028,27.568334 88.6425498,28.7828233 C90.4990338,27.8074067 91.9719314,27.7921061 93.0407597,28.2626011 C94.1300708,28.7426591 94.6272435,29.7314638 94.5806918,30.7393943 C94.2250364,29.2686191 92.8452423,29.6721738 90.7038616,30.3779164 C87.6295836,31.3896721 85.1288233,32.1049776 81.8944073,32.3153616 C79.6003368,32.4664555 77.2913697,32.3536132 75.0140578,31.9768346 C75.814748,31.6650838 76.5390933,31.2462285 77.1312317,30.7336566 C78.8201294,30.9057889 81.1253723,30.5749123 81.5368898,28.5361003 C81.6765451,27.8475709 81.5070967,27.2202442 80.9540619,27.0347237 C82.655994,26.71341 84.0953743,28.7044075 82.5535802,30.7451321" id="Fill-12" fill="#D7B93E"></path>
                                <path d="M57.7975427,24.2509612 C59.0116125,25.0599832 60.1511995,25.7638132 60.8829931,26.2151825 C60.7880275,26.8769358 60.9947173,27.4583606 61.4248555,27.6247552 C61.6650626,27.7146465 61.9332007,27.6630068 62.1827181,27.5042625 C63.002029,31.8439102 66.7354798,31.323688 66.8378936,34.0414665 C68.2623774,32.0294306 67.1544456,28.3783123 63.9889262,26.8884112 C67.351825,27.9039921 70.5396893,25.9455085 70.7296204,23.4591524 C68.9234123,25.4673631 66.8509281,22.4397464 63.0709256,25.3315698 C63.002029,24.9624416 62.815822,24.6774669 62.5346493,24.5684497 C62.2255457,24.4498697 61.8698903,24.5703623 61.5607866,24.8534244 C61.067338,24.5454988 59.9705786,23.8760952 58.7490606,23.0689857 C58.4343707,23.4629776 58.1159567,23.8569694 57.7975427,24.2509612" id="Fill-13" fill="#D7B93E"></path>
                                <path d="M54.0315056,19.261227 C52.9980567,17.8573921 52.849091,16.1953587 54.1004022,15.5393432 C54.2251609,15.4724028 54.3741266,15.4398889 54.5361267,15.4551896 C54.2921955,15.489616 54.1022643,15.7076503 54.0799195,15.956286 C54.0128849,16.7385318 54.7148854,17.117223 55.3368169,16.9680416 C55.7036447,16.8800629 56.0406794,16.6084763 56.2324727,16.2316977 C56.4726797,15.7573775 56.4559211,15.1587394 56.2492313,14.657643 C55.8395758,13.6573628 54.5324025,13.2480704 53.6013674,13.5732093 C52.6014357,13.9212991 52.0204698,14.7245834 51.7728145,15.5680319 C51.4208832,16.7806086 51.6331592,18.4082156 52.502746,19.8082253 C53.0055049,20.6191599 54.1637126,21.6328282 55.4950928,22.6292832 C55.8116448,22.2391166 56.1281967,21.8451248 56.4410245,21.4530455 C55.4057135,20.6765374 54.4988853,19.8981167 54.0315056,19.261227" id="Fill-14" fill="#D7B93E"></path>
                                <path d="M68.0042944,30.9318 C71.3429864,32.9132346 76.2718863,31.645193 77.6851976,29.0306939 C78.2400945,28.0055502 78.0315426,26.6629179 77.0651282,25.9724759 C76.4618174,25.542145 75.7132652,25.5612709 75.1695407,25.857721 C74.5867127,26.1752096 74.2440918,26.7279456 74.3353332,27.3514473 C74.4545057,28.143256 75.2738166,28.7897086 76.0242309,28.3918917 C76.5344382,28.1183925 76.7485762,27.5407928 76.4469209,27.1372381 C77.1973352,28.0304137 76.4115415,29.4093851 75.1304372,29.4495493 C74.0988503,29.4801506 72.8289184,28.3058255 71.9407109,27.7435265 C71.1623655,27.2500804 70.3858823,26.8637389 69.4920886,26.6839563 C69.3524333,26.7853231 69.2071918,26.8809522 69.054502,26.9727561 C68.2873291,27.4279505 67.3711906,27.7301384 66.3824313,27.814292 C67.0546386,28.5391604 67.5387769,29.3749586 67.8180874,30.22797 C67.8944323,30.461305 67.9577427,30.6965525 68.0042944,30.9318" id="Fill-15" fill="#D7B93E"></path>
                                <path d="M46.0558864,12.6035304 C44.8418166,11.7945083 43.7003676,11.0887657 42.9704361,10.6373965 C43.0654016,9.9775558 42.8587119,9.39613099 42.4267116,9.22973639 C42.1883666,9.13984505 41.9202285,9.18957218 41.670711,9.34831645 C40.8495381,5.01058133 37.1179493,5.52889095 37.0155355,2.81111247 C35.5910517,4.82314833 36.6989835,8.47617923 39.8645029,9.96608031 C36.499742,8.94858689 33.3137399,10.9089831 33.1238087,13.3934266 C34.9300168,11.3871285 37.002501,14.4147452 40.7825035,11.5210092 C40.8514001,11.8901374 41.0376072,12.1770247 41.3187798,12.2860418 C41.6278834,12.4046219 41.9835388,12.2841292 42.2926425,11.9991546 C42.7860911,12.3070802 43.8828505,12.9783964 45.1025065,13.7855058 C45.4190584,13.391514 45.7374724,12.9975222 46.0558864,12.6035304" id="Fill-16" fill="#D7B93E"></path>
                                <path d="M49.8219235,17.5923083 C50.8553725,18.9961432 51.0043381,20.6600892 49.7530269,21.3141921 C49.6264061,21.3811325 49.4774405,21.4136464 49.3173024,21.3983457 C49.5612336,21.3658318 49.7511648,21.1458849 49.7735097,20.8991619 C49.8405442,20.1150034 49.1385437,19.7382249 48.5166122,19.8854936 C48.1497844,19.9734724 47.8127497,20.2469716 47.6209565,20.6237501 C47.3807494,21.0961578 47.395646,21.6967084 47.6041978,22.1958922 C48.0138533,23.1961724 49.3191645,23.6054649 50.2520617,23.280326 C51.2519934,22.9322362 51.8329593,22.1289519 52.0787526,21.2855034 C52.4306839,20.0729266 52.2202699,18.4453197 51.3506831,17.0453099 C50.8479242,16.2343753 49.6897165,15.2207071 48.3583363,14.224252 C48.0417843,14.6144187 47.7252324,15.0084105 47.4124046,15.4004897 C48.4477156,16.1789105 49.3545438,16.9573312 49.8219235,17.5923083" id="Fill-17" fill="#D7B93E"></path>
                                <path d="M35.8491347,5.92269151 C32.5104428,3.94125695 27.5815429,5.20738598 26.1682316,7.82379764 C25.6133346,8.84702881 25.8200244,10.1915737 26.7883009,10.8820157 C27.3916117,11.3123465 28.1401639,11.2932207 28.6838884,10.9967705 C29.2667164,10.679282 29.6093373,10.1265459 29.5180959,9.5030443 C29.3989234,8.70932293 28.5796125,8.06478292 27.8291982,8.4625999 C27.318991,8.73418649 27.1048529,9.31369872 27.4046462,9.71725344 C26.656094,8.82407783 27.4418876,7.4431939 28.7229919,7.40494226 C29.7545788,7.37434096 31.0245107,8.54866607 31.9108561,9.11096507 C32.6910636,9.60249855 33.4675469,9.99075262 34.3613406,10.1705353 C34.5009958,10.0672559 34.6462373,9.9716268 34.7989271,9.88173546 C35.5661,9.42654104 36.4822386,9.12244056 37.4709979,9.03828697 C36.7969284,8.31533112 36.3146522,7.47953295 36.0353417,6.62652154 C35.9589968,6.39318659 35.8938244,6.15793905 35.8491347,5.92269151" id="Fill-18" fill="#D7B93E"></path>
                                <path d="M21.2998489,6.10840318 C18.9015025,8.54120701 14.2370166,10.0750975 15.4175691,11.4100794 C13.8161887,11.270461 13.4363264,9.28711384 15.2108793,8.07071193 C13.3543953,9.04804114 11.8814977,9.06142921 10.8126694,8.59093413 C9.72335832,8.10896356 9.2243235,7.12398402 9.27273733,6.11414093 C9.62839274,7.58491619 11.0081868,7.18136147 13.1495675,6.47561885 C16.2219834,5.46386318 18.7227437,4.75047023 21.9590218,4.53817367 C24.2530923,4.38707972 26.5620594,4.49992204 28.8393713,4.8786132 C28.0386811,5.18845142 27.3143358,5.60921938 26.7221975,6.11987867 C25.0332998,5.94774633 22.7280568,6.27862295 22.3146772,8.31934754 C22.176884,9.00596434 22.3444703,9.63329111 22.8993673,9.81881153 C21.1974351,10.1401252 19.7580548,8.14912777 21.2998489,6.10840318" id="Fill-19" fill="#D7B93E"></path>
                                <path d="M12.3604222,9.56845459 C11.1128351,10.5897732 10.1687655,11.6340427 9.80566183,13.0933425 C9.53193751,14.1892518 9.43883399,15.8245091 10.6622141,16.37342 C11.5001457,16.748286 12.5335947,16.185987 12.5075257,15.1589307 C12.2803532,15.6102999 11.6789045,15.6600271 11.2226973,15.3004617 C10.5504899,14.7725892 10.7702142,13.7359699 11.4182146,13.2884258 C11.9284219,12.9365108 12.5596637,13.0206644 13.0884916,13.4261317 C13.5800782,13.8048229 13.8631129,14.4857019 13.7960783,15.2373465 C13.6601472,16.7559363 12.6509051,17.8231569 11.401456,18.1119567 C12.939526,19.290107 12.4125602,22.3272866 10.2562828,21.6425824 C10.5635244,21.6999598 10.8838005,21.305968 10.9545592,20.8048716 C11.0811799,19.8983079 9.82428253,18.7794477 9.16510967,18.1635964 C8.46310919,17.5094935 7.75924665,16.8362648 7.62517759,15.8245091 C6.27517667,19.1294501 3.42807129,18.5059485 3.14317455,16.6124927 C4.21945114,17.205393 5.18400352,16.1706864 6.19324558,14.8280541 C6.68297005,14.1796889 7.13731519,13.5351489 7.58793619,12.8963466 C8.50407474,11.5938785 9.38110982,10.3067111 10.5244209,9.19932634 C11.0942144,9.45561228 11.7329045,9.57419234 12.3604222,9.56845459" id="Fill-20" fill="#D7B93E"></path>
                                <path d="M7.81436393,17.7577466 C7.66726038,18.9110333 7.68029487,20.0719703 7.84043291,21.2023061 C8.1160193,23.145489 9.53864096,25.0446826 11.2834008,25.6222822 C12.0263668,25.8670927 12.7376776,25.8384039 13.2553331,25.3545208 C13.3614711,25.2550665 13.4396781,25.1269236 13.4843678,24.9662667 C13.2553331,25.4023353 12.5998844,25.1957765 12.4211257,24.8132602 C12.3280222,24.6200894 12.296367,24.3370274 12.3727118,24.0539653 C12.508643,23.5700821 12.9108501,23.2353803 13.3912643,23.1760903 C14.2831959,23.0670732 15.082024,23.7613403 15.2011965,24.6659914 C15.2812655,25.289493 15.1322999,26.0315747 14.7654721,26.4867691 C13.8511956,27.6343181 11.7768494,27.8217511 10.0302275,26.6512511 C10.6949866,27.5520771 11.4975388,28.3515362 12.430436,29.0113768 C13.9163681,30.0671219 15.6313347,30.2201284 17.228991,29.5468997 C18.4318884,29.038153 19.0277508,27.7548107 18.1656123,27.1599978 C20.6998899,27.5865035 20.3758897,30.1111113 18.767061,30.912483 C19.2940269,30.8857068 19.8042341,30.8130287 20.2920965,30.6944487 C22.9083052,30.0690345 24.4873408,28.3649243 23.7629954,25.5553419 C21.5620284,26.1635428 19.4858201,25.7982397 18.3201642,24.7520576 C15.7635417,22.4569596 15.4600243,17.5856142 13.4676091,17.9719557 C16.4897491,17.0787801 17.599543,19.1443683 18.6050609,21.6077734 C19.3610614,23.4629776 20.9736142,25.0006932 23.1298916,24.3064261 C20.4243035,23.977462 19.5063029,21.0378241 18.4542332,18.752289 C17.7391982,17.1992727 16.726232,16.0249476 15.4060243,16.1186641 C17.7187155,14.5082704 19.9085101,16.2066429 20.5844416,18.6050202 C20.940097,19.8711493 21.1318902,21.540833 22.982788,23.0154335 C22.3385117,22.1796353 21.8972011,21.2099564 21.6104423,20.1982007 C21.1840282,18.6872612 21.1281661,17.5263242 20.4671311,16.2506323 C19.8433376,15.0476184 18.8154748,14.3533513 18.052026,14.4011658 C17.7838879,13.5519796 18.2605779,13.0068938 18.8843714,12.9705548 C18.5659574,12.0200017 19.5733374,11.7656284 19.3349924,11.1402142 C19.5733374,11.7656284 20.4820277,11.2454062 20.8805107,12.1634453 C21.3590628,11.7541529 22.0685115,11.8191806 22.4390635,12.6282027 C21.8469252,13.1273865 21.5564422,14.3533513 21.8972011,15.6730326 C22.2603048,17.0692172 22.9902363,17.9566551 23.6810644,19.3624026 C24.1428578,20.3033927 24.4612718,21.3208861 24.5432029,22.3823689 C24.9230652,20.0088552 23.9529266,18.6547474 23.3738228,17.4785097 C22.2770634,15.2484395 22.7518913,12.4732836 25.5152035,12.0333898 C24.4836166,12.8902264 24.5245822,14.4566307 25.0292032,16.091888 C25.7758934,18.505566 27.0569977,21.2979352 25.2954792,23.4304637 C27.3325841,22.4301835 27.49086,20.1752498 26.8149285,18.2894443 C25.9174107,15.7820498 25.3587896,13.4946021 28.1630674,12.0333898 C26.4481007,13.1445997 29.4590683,16.9219484 29.1108611,20.3894589 C28.9618955,21.8525838 27.8595499,23.4362014 26.0961694,24.5340233 C26.8037561,27.7471604 25.1446516,30.116849 22.7332706,31.3848906 C23.749961,31.6928163 24.1894095,32.7829878 23.167133,33.655125 C23.2863055,33.0277982 22.6345809,32.5630409 21.6718906,32.4654993 C20.5527864,32.3526569 19.4914063,32.4406357 18.290371,32.4406357 C17.3630601,32.4406357 16.4022318,32.3182305 15.452576,32.0638571 C13.2851263,31.4824323 11.4696078,30.3826979 10.0376758,28.9463491 C9.75277903,28.6613744 9.48277885,28.3610991 9.2295373,28.0493483 C9.22767523,29.1509953 8.31898496,29.893077 7.21850145,29.1108311 C7.97263989,29.0477159 8.14022622,27.9288556 7.83857084,26.6436008 C7.54250167,25.3927724 7.0341565,24.3026009 6.69525972,23.0058706 C6.56119066,22.4856484 6.45505266,21.9577758 6.37870778,21.4241656 C6.24277665,20.4640496 6.20367318,19.4828952 6.26325942,18.5017408 C6.76601839,18.2263291 7.16822556,17.8495505 7.51270855,17.3867057 C7.60767413,17.522499 7.70263971,17.6372539 7.81436393,17.7577466" id="Fill-21" fill="#D7B93E"></path>
                                <path d="M65.2221753,19.3985504 C66.9259696,19.7638534 67.7080391,20.7736965 67.3225905,22.0551262 C69.1492814,20.8463746 68.687488,19.0772366 67.335625,18.4250463 C68.5701776,18.3523682 70.8959033,18.7348845 71.0690758,20.2209605 C71.0839724,20.3682292 71.0653517,20.5174106 70.994593,20.666592 C71.098869,20.1827088 70.4713513,19.9015593 70.093351,20.0679539 C69.9015578,20.1540201 69.694868,20.3452783 69.5738334,20.6111271 C69.3671436,21.0682341 69.4583851,21.5922815 69.7842474,21.9594971 C70.3875581,22.6403762 71.4377657,22.6518517 72.1006627,22.0493885 C72.558732,21.6324457 72.9199736,20.9687799 72.9348702,20.3797047 C72.9516288,19.6395356 72.6015596,18.8859785 71.9889385,18.2816027 C72.1658352,18.2280504 72.3352836,18.1591975 72.4935596,18.0750439 C73.2961118,17.6523633 73.7355604,16.6788593 73.3985257,15.7895088 C73.1843876,15.2348602 72.6853528,14.9097213 72.2030766,14.8580816 C71.6854211,14.8026167 71.2236277,15.0110881 71.0169379,15.4605448 C70.754386,16.0343193 71.0150758,16.8280407 71.6798349,16.9045439 C72.1304559,16.9580962 72.5177665,16.6750341 72.4935596,16.2753046 C72.5568699,16.8261281 72.0559731,17.2449834 71.259007,17.3425251 C70.5625927,17.4285913 70.0151441,17.2201199 69.3392126,17.2009941 C68.8587985,17.187606 68.3504533,17.2315954 67.812315,17.3176616 C68.3299705,16.7802261 68.7805915,16.1682 69.1492814,15.5217474 C69.8922474,14.2231045 70.4471444,13.1042442 71.4694209,12.2397573 C72.7319045,11.1725368 74.5250782,11.4575115 74.5027333,12.9015106 C75.1451476,9.4971153 71.8716281,9.35940942 70.8325929,10.6982166 C71.1044552,9.74766349 71.419145,8.82771173 71.9330764,7.97852549 C72.506594,7.02988501 73.1341117,6.34135562 73.7281121,5.96266446 C74.4319747,5.51512036 75.21032,5.41566612 75.5641134,5.98944061 C75.2159062,5.63561301 74.6423886,6.03342998 74.573492,6.45993569 C74.5418368,6.67414483 74.5902506,6.95911949 74.7466645,7.20966768 C75.0185268,7.63999855 75.4989409,7.82360638 75.979355,7.73754021 C76.8787349,7.57305819 77.437356,6.66266934 77.2921145,5.7503679 C77.1952869,5.12112855 76.8172866,4.51101501 76.3312863,4.17822581 C74.6498369,3.02302651 71.4247312,4.3044562 70.4974203,7.82934413 C70.5272134,5.47686873 69.0636262,4.80172742 67.6689356,5.54380909 C68.5254879,5.57632298 68.5683155,6.95720691 68.3597636,8.91569049 C68.1493497,10.8913873 68.6241776,12.4405784 68.3765223,14.4870408 C68.1716946,11.610518 65.6523135,11.2528652 64.7436233,12.794406 C65.4009341,12.4004142 66.1755553,13.0583423 66.5107279,14.0031576 C66.7937626,14.7930538 66.7099694,15.7378691 66.3152105,16.4914263 C65.7677619,17.5471713 64.6058301,18.1324213 63.4569327,18.0119287 C62.9318289,17.9583764 62.4402424,17.7326918 62.0827249,17.292798 C61.6674832,16.7802261 61.5427245,16.10891 61.6153453,15.6097262 C61.7531385,14.6496102 62.985829,14.1638145 63.4718293,14.9996126 C63.2446567,14.5348553 62.6134149,14.6591731 62.4067251,15.1067172 C62.2056215,15.5485236 62.5035528,16.1777629 62.8908634,16.4110979 C63.7995537,16.9561836 64.9540372,16.2523536 65.0266579,15.1870456 C65.1030028,14.047147 63.993209,12.7542418 62.1944491,13.4657222 C62.907622,12.6490498 63.5239673,12.4444036 64.0397607,11.4441234 C64.1682436,11.1954878 64.2650712,10.9296389 64.3209333,10.6427517 C64.5592783,9.38809815 63.993209,8.16595849 62.8256909,7.65912436 C61.633966,7.14081474 60.1554822,7.55010721 59.565206,8.64027873 C59.0717573,9.55066759 59.4032058,10.837835 60.3714824,11.1725368 C61.3565175,11.5148889 62.376932,10.5968497 61.8797592,9.68072314 C61.6898281,9.32880812 61.2838968,9.13563737 60.9412759,9.33645844 C61.9151386,8.62115292 63.1832084,9.73236284 62.3732079,11.1342852 C61.980311,11.8132516 61.2224485,12.2952222 60.7178274,12.9244616 C59.885482,13.9629934 59.6638957,15.1430562 59.911551,16.2179271 C59.9953442,16.579405 60.123827,16.917932 60.2895513,17.2258576 C59.9283096,17.1990815 59.593137,17.3042735 59.3566541,17.5548217 C59.0028607,17.9277751 58.9712055,18.5245006 59.2188609,19.0791492 C56.9862387,21.7261622 54.7536165,24.9010477 52.2249251,27.2133589 C53.0758912,26.9226465 53.9566504,26.7505141 54.8504441,26.6950492 C56.7274109,24.6275485 58.4684466,22.2980241 60.2727926,20.1444572 C60.8276896,20.3950054 61.4198279,20.3471908 61.7792075,19.9665871 C62.0361731,19.6950005 62.1236904,19.3067464 62.0566559,18.9012791 C62.4123113,19.0657612 62.7958978,19.1747783 63.199967,19.2225928 C63.8907951,19.3010087 64.4624507,19.2359809 65.2221753,19.3985504" id="Fill-22" fill="#D7B93E"></path>
                                <path d="M38.6312538,17.4559412 C36.9274596,17.0887255 36.1453901,16.080795 36.5308386,14.7993653 C34.7022856,16.0081169 35.1659411,17.7772549 36.5178041,18.4294452 C35.2832515,18.5002108 32.9556638,18.1176944 32.7843533,16.6335311 C32.7675947,16.4862623 32.7880774,16.337081 32.856974,16.185987 C32.7545602,16.6698702 33.3802158,16.9529322 33.7600781,16.7865376 C33.9518713,16.7004715 34.1585611,16.5092133 34.2795957,16.2414519 C34.4862855,15.7843449 34.395044,15.2622101 34.0691817,14.8949944 C33.465871,14.2141154 32.4156634,14.2007273 31.7527664,14.8051031 C31.2946971,15.2220459 30.9334555,15.8837991 30.9185589,16.4747868 C30.9018003,17.2149559 31.2518695,17.9685131 31.8644906,18.5709763 C31.6875939,18.6264412 31.5181455,18.6952941 31.3598696,18.7775351 C30.5573173,19.2002156 30.1178687,20.1756323 30.4549034,21.0649827 C30.6690415,21.6196314 31.1662143,21.9447703 31.6503525,21.99641 C32.168008,22.0499623 32.6298015,21.8434034 32.8364913,21.3939468 C33.0990432,20.8201723 32.8383533,20.0264509 32.1735943,19.9480351 C31.7229733,19.8963954 31.3356627,20.1794574 31.3598696,20.579187 C31.2965592,20.0264509 31.7974561,19.6095081 32.5944221,19.5100539 C33.2889743,19.4239877 33.838285,19.6343717 34.5142165,19.6515849 C34.9946307,19.6668856 35.5029758,19.6209836 36.0411141,19.53683 C35.5234586,20.0723529 35.0728376,20.684379 34.7041477,21.3327441 C33.9611817,22.6294745 33.4062847,23.7502473 32.3840082,24.6147342 C31.1215246,25.6800422 29.3283509,25.3969801 29.3488337,23.952981 C28.7082816,27.3573763 31.981801,27.4950821 33.0208362,26.156275 C32.748974,27.1068281 32.4342841,28.0248672 31.9203527,28.8759661 C31.3468351,29.8246065 30.7193174,30.5112234 30.125317,30.8899145 C29.4214545,31.3393712 28.6431091,31.4388254 28.2893158,30.865051 C28.6375229,31.216966 29.2110405,30.819149 29.2799371,30.3945559 C29.3115923,30.1784341 29.2631785,29.8934595 29.1049025,29.6429113 C28.8349023,29.2125804 28.3544882,29.0308852 27.8740741,29.1169513 C26.9746942,29.2814334 26.414211,30.1899096 26.5613146,31.1041237 C26.6581422,31.733363 27.0361425,32.3434765 27.5221428,32.6762657 C29.2035922,33.831465 32.4286979,32.5500354 33.3560089,29.0251474 C33.3262157,31.3776228 34.7898029,32.0527641 36.1844935,31.3087699 C35.3279412,31.2781686 35.2851136,29.8972847 35.4918034,27.9388011 C35.7040794,25.9611917 35.2292515,24.4139131 35.4769068,22.3674508 C35.6817346,25.2439736 38.2011156,25.6016263 39.1098059,24.058173 C38.450633,24.4540774 37.6778739,23.7942367 37.3427012,22.851334 C37.0578045,22.0595252 37.1434597,21.1166224 37.5363565,20.3630653 C38.0856672,19.3073202 39.2475991,18.7201577 40.3964964,18.8406503 C40.9216002,18.8961152 41.4131867,19.1217998 41.7707042,19.5616936 C42.1859459,20.0742654 42.3107046,20.7455816 42.2380838,21.2428528 C42.1002906,22.2048814 40.8676002,22.6906771 40.3797378,21.8548789 C40.6087724,22.3196363 41.2400142,22.1934059 41.446704,21.7458618 C41.6478076,21.305968 41.3498763,20.6767287 40.9625657,20.4433937 C40.0538755,19.8963954 38.8975299,20.602138 38.8267712,21.6674459 C38.7504263,22.8073446 39.8583581,24.1002498 41.65898,23.3887694 C40.9458071,24.2035292 40.3275998,24.410088 39.8136684,25.4103682 C39.6833235,25.6570912 39.5883579,25.9248526 39.5324958,26.2098273 C39.2941508,27.4663934 39.8602202,28.6866205 41.0277382,29.1953672 C42.2194631,29.7117642 43.6979469,29.3024718 44.2863611,28.2142128 C44.7798097,27.3019114 44.4502233,26.0166565 43.4819468,25.6800422 C42.4969116,25.3396026 41.4746351,26.2576418 41.9736699,27.1718558 C42.163601,27.5256834 42.5695323,27.7188542 42.9121533,27.5180331 C41.9382905,28.2333386 40.6702207,27.1202161 41.4783592,25.7182938 C41.8731181,25.0412399 42.6309807,24.5592693 43.1356017,23.93003 C43.9679471,22.8914982 44.1895334,21.7114353 43.9418781,20.6346519 C43.8580849,20.2750865 43.7296021,19.9365596 43.5620158,19.6267213 C43.9232574,19.6554101 44.2602921,19.5502181 44.496775,19.2996699 C44.8505684,18.9248039 44.8822236,18.3280784 44.6345682,17.7753423 C46.8671904,15.1283294 49.0979506,11.9534439 51.6266419,9.6411327 C50.7756758,9.92993252 49.8967787,10.1020649 49.002985,10.1575297 C47.1260182,12.2250305 45.3849825,14.5564675 43.5787744,16.7100344 C43.0257396,16.4575736 42.4336012,16.5053881 42.0742217,16.8859919 C41.817256,17.1575785 41.7297387,17.5477451 41.7967732,17.9512998 C41.4411178,17.7887304 41.0556692,17.6778007 40.6534621,17.6318987 C39.962634,17.5515703 39.3909785,17.6185106 38.6312538,17.4559412" id="Fill-23" fill="#D7B93E"></path>
                                <path d="M58.2157637,5.66200663 C59.5825232,5.25462675 60.9716276,5.12074603 62.3123182,5.38085713 C62.4556976,5.40954586 62.6046632,5.44397233 62.7573529,5.48604912 C63.8969399,5.79971251 64.7981819,6.43468961 65.3325961,7.37759235 C65.8763206,8.33579574 66.0643897,9.63826382 65.7794929,11.2696959 C66.2729415,11.1625914 66.7868729,11.2218814 67.2486663,11.4265276 C67.5726666,9.46613148 67.3119767,7.85573775 66.6099763,6.61829744 C65.8651482,5.31009161 64.6548025,4.43795439 63.1409394,4.0210116 C62.9659048,3.97319706 62.7796978,3.92920768 62.5841804,3.89286863 C60.9846621,3.58111783 59.3516265,3.7398621 57.7614185,4.21992009 C56.2699003,4.66937677 55.4822446,4.90079915 53.7784503,5.09970764 C52.1416906,5.28905322 50.7898276,4.90653689 50.961138,3.79150181 C49.7880338,5.67156954 50.9257587,7.08305478 52.4210011,7.09644285 C50.21631,8.28989378 46.639273,8.4333374 46.1849279,6.62403519 C46.1514106,6.48059157 46.1514106,6.32949762 46.2016865,6.17075334 C46.160721,6.6641994 46.8180318,6.85928273 47.1718251,6.643161 C47.3524459,6.53223127 47.5312047,6.31228438 47.6168599,6.03304747 C47.7639635,5.5510769 47.6056875,5.04424277 47.2351355,4.72675422 C46.5461695,4.13194134 45.5071343,4.26390947 44.9261684,4.95243885 C44.8498235,5.04424277 44.7772028,5.14369701 44.7120304,5.248889 C44.0249264,3.69969789 41.8239594,3.9272951 41.7569249,5.7595483 C41.9319595,5.18959897 42.6469945,5.11692087 43.1832707,5.5090001 C43.5203054,5.75763571 43.7903056,6.19179174 44.0621678,6.67376231 C44.6952717,7.79644772 45.2762376,8.77951468 46.5443075,9.21940845 C48.335619,9.84291006 51.489966,9.4431805 53.5903812,7.88633906 C53.2794155,8.78333984 53.3110707,9.69181611 53.7076916,10.3726952 C54.0018987,10.8814419 54.6312785,11.2773463 55.229003,11.4093144 C56.0967277,11.6024851 57.005418,11.0650497 57.2065216,10.1642238 C57.3163837,9.6822532 57.1469353,9.17924423 56.7465902,8.88661925 C56.5138315,8.7144869 56.2419692,8.64945913 56.0352794,8.6724101 C55.6237619,8.71831206 55.2141064,9.28061106 55.5362446,9.64782673 C55.4021755,9.55411023 55.3109341,9.43361759 55.2569249,9.29591171 C55.0130029,8.69153592 55.1619685,8.05655882 55.5530032,7.47513401 C56.2010037,6.51693062 57.1562457,5.97949518 58.2157637,5.66200663" id="Fill-24" fill="#D7B93E"></path>
                                <path d="M85.9121963,0 L103.853243,0 L103.853243,18.4258113 C103.853243,15.3063907 103.087932,12.3629276 101.739793,9.78094241 L101.739793,2.16886756 L94.3306158,2.16886756 C91.8149589,0.786071046 88.9492328,0 85.9121963,0" id="Fill-77" fill="#D7B93E"></path>
                                <path d="M85.9121963,0 L103.853243,0 L103.853243,18.4258113 C103.853243,15.3063907 103.087932,12.3629276 101.739793,9.78094241 L101.739793,2.16886756 L94.3306158,2.16886756 C91.8149589,0.786071046 88.9492328,0 85.9121963,0 Z" id="Stroke-78" stroke="#000000" stroke-width="0.283" stroke-linecap="round" stroke-linejoin="round"></path>
                                <path d="M85.9121963,36.8564041 L103.853243,36.8564041 L103.853243,18.4305928 C103.853243,21.5500134 103.087932,24.4934765 101.739793,27.0773743 L101.739793,34.6875366 L94.3306158,34.6875366 C91.8149589,36.0722457 88.9492328,36.8564041 85.9121963,36.8564041" id="Fill-83" fill="#D7B93E"></path>
                                <path d="M85.9121963,36.8564041 L103.853243,36.8564041 L103.853243,18.4305928 C103.853243,21.5500134 103.087932,24.4934765 101.739793,27.0773743 L101.739793,34.6875366 L94.3306158,34.6875366 C91.8149589,36.0722457 88.9492328,36.8564041 85.9121963,36.8564041 Z" id="Stroke-84" stroke="#000000" stroke-width="0.283" stroke-linecap="round" stroke-linejoin="round"></path>
                            </g>
                            <g id="Group-3" transform="translate(0.000000, 18.821393)">
                                <path d="M8.13409806,0 C7.99359167,5.09819618 6.03872019,8.65758973 3.91279745,11.6680366 C2.68183932,13.4141542 1.68607665,14.7982006 0,14.2521738 C2.03734262,16.553078 4.97881331,16.2902843 6.57325536,13.5893499 C5.38506004,17.2772204 7.95999232,17.6655709 8.13409806,19.0028985 C8.3082038,17.6655709 10.8831361,17.2772204 9.69494076,13.5893499 C11.2893828,16.2902843 14.2308535,16.553078 16.2681961,14.2521738 C14.5821195,14.7982006 13.5863568,13.4141542 12.3553987,11.6680366 C10.2294759,8.65758973 8.27460445,5.09819618 8.13409806,0" id="Fill-98" fill="#D7B93E"></path>
                                <path d="M8.13409806,0 C7.99359167,5.09819618 6.03872019,8.65758973 3.91279745,11.6680366 C2.68183932,13.4141542 1.68607665,14.7982006 0,14.2521738 C2.03734262,16.553078 4.97881331,16.2902843 6.57325536,13.5893499 C5.38506004,17.2772204 7.95999232,17.6655709 8.13409806,19.0028985 C8.3082038,17.6655709 10.8831361,17.2772204 9.69494076,13.5893499 C11.2893828,16.2902843 14.2308535,16.553078 16.2681961,14.2521738 C14.5821195,14.7982006 13.5863568,13.4141542 12.3553987,11.6680366 C10.2294759,8.65758973 8.27460445,5.09819618 8.13409806,0 Z" id="Stroke-99" stroke="#000000" stroke-width="0.283" stroke-linecap="round" stroke-linejoin="round"></path>
                            </g>
                            <g id="Group-3-Copy" transform="translate(8.134098, 9.808496) scale(1, -1) translate(-8.134098, -9.808496) translate(0.000000, 0.307047)">
                                <path d="M8.13409806,0 C7.99359167,5.09819618 6.03872019,8.65758973 3.91279745,11.6680366 C2.68183932,13.4141542 1.68607665,14.7982006 0,14.2521738 C2.03734262,16.553078 4.97881331,16.2902843 6.57325536,13.5893499 C5.38506004,17.2772204 7.95999232,17.6655709 8.13409806,19.0028985 C8.3082038,17.6655709 10.8831361,17.2772204 9.69494076,13.5893499 C11.2893828,16.2902843 14.2308535,16.553078 16.2681961,14.2521738 C14.5821195,14.7982006 13.5863568,13.4141542 12.3553987,11.6680366 C10.2294759,8.65758973 8.27460445,5.09819618 8.13409806,0" id="Fill-98" fill="#D7B93E"></path>
                                <path d="M8.13409806,0 C7.99359167,5.09819618 6.03872019,8.65758973 3.91279745,11.6680366 C2.68183932,13.4141542 1.68607665,14.7982006 0,14.2521738 C2.03734262,16.553078 4.97881331,16.2902843 6.57325536,13.5893499 C5.38506004,17.2772204 7.95999232,17.6655709 8.13409806,19.0028985 C8.3082038,17.6655709 10.8831361,17.2772204 9.69494076,13.5893499 C11.2893828,16.2902843 14.2308535,16.553078 16.2681961,14.2521738 C14.5821195,14.7982006 13.5863568,13.4141542 12.3553987,11.6680366 C10.2294759,8.65758973 8.27460445,5.09819618 8.13409806,0 Z" id="Stroke-99" stroke="#000000" stroke-width="0.283" stroke-linecap="round" stroke-linejoin="round"></path>
                            </g>
                        </g>
                        <g id="Group-7-Copy" transform="translate(60.918455, 21.352422) scale(-1, 1) translate(-60.918455, -21.352422) translate(2.486468, 2.440277)">
                            <g id="Group-5" transform="translate(13.010732, 0.000000)">
                                <path d="M85.9121963,0 L17.9410467,0 C8.07207445,0 0,8.29295391 0,18.4277239 C0,28.5624939 8.07766066,36.8554478 17.9410467,36.8554478 L85.9121963,36.8554478 C95.7774443,36.8554478 103.853243,28.5624939 103.853243,18.4258113 C103.853243,8.29295391 95.7793064,0 85.9121963,0 M101.739793,18.4258113 C101.739793,27.3633053 94.6117884,34.6865803 85.9121963,34.6865803 L17.9410467,34.6865803 C9.24145455,34.6865803 2.11158764,27.3633053 2.11158764,18.4277239 C2.11158764,9.49023001 9.23959248,2.16886756 17.9410467,2.16886756 L85.9121963,2.16886756 C94.6136504,2.16886756 101.739793,9.48831742 101.739793,18.4258113" id="Fill-5" fill="#D7B93E"></path>
                                <path d="M85.9121963,0 L17.9410467,0 C8.07207445,0 0,8.29295391 0,18.4277239 C0,28.5624939 8.07766066,36.8554478 17.9410467,36.8554478 L85.9121963,36.8554478 C95.7774443,36.8554478 103.853243,28.5624939 103.853243,18.4258113 C103.853243,8.29295391 95.7793064,0 85.9121963,0 Z M101.739793,18.4258113 C101.739793,27.3633053 94.6117884,34.6865803 85.9121963,34.6865803 L17.9410467,34.6865803 C9.24145455,34.6865803 2.11158764,27.3633053 2.11158764,18.4277239 C2.11158764,9.49023001 9.23959248,2.16886756 17.9410467,2.16886756 L85.9121963,2.16886756 C94.6136504,2.16886756 101.739793,9.48831742 101.739793,18.4258113 Z" id="Stroke-6" stroke="#000000" stroke-width="0.283" stroke-linecap="round" stroke-linejoin="round"></path>
                                <path d="M85.9121963,2.16848504 L17.9410467,2.16848504 C9.23959248,2.16848504 2.11158764,9.48984749 2.11158764,18.4273414 C2.11158764,27.3629227 9.24145455,34.6861978 17.9410467,34.6861978 L85.9121963,34.6861978 C94.6117884,34.6861978 101.739793,27.3629227 101.739793,18.4254288 C101.739793,9.48984749 94.6136504,2.16848504 85.9121963,2.16848504" id="Fill-7" fill="#000000"></path>
                                <path d="M85.9121963,2.16848504 L17.9410467,2.16848504 C9.23959248,2.16848504 2.11158764,9.48984749 2.11158764,18.4273414 C2.11158764,27.3629227 9.24145455,34.6861978 17.9410467,34.6861978 L85.9121963,34.6861978 C94.6117884,34.6861978 101.739793,27.3629227 101.739793,18.4254288 C101.739793,9.48984749 94.6136504,2.16848504 85.9121963,2.16848504 Z" id="Stroke-8" stroke="#000000" stroke-width="0.283" stroke-linecap="round" stroke-linejoin="round"></path>
                                <path d="M45.6376655,31.1915286 C44.2709059,31.5989085 42.8818015,31.7327892 41.541111,31.4726781 C41.3977316,31.445902 41.2469039,31.4095629 41.0960762,31.3674861 C39.9546271,31.0557353 39.0552472,30.4188457 38.520833,29.4759429 C37.9771085,28.5177395 37.7871774,27.217184 38.0739362,25.5838393 C37.5786255,25.6909439 37.0665562,25.6335664 36.6047628,25.4270076 C36.2807626,27.3874038 36.5414524,28.9977975 37.2434529,30.2352378 C37.9864189,31.5453562 39.1986266,32.4155809 40.7124897,32.8325237 C40.8856622,32.8803382 41.0737313,32.922415 41.2692487,32.9625792 C42.866905,33.2724174 44.5018026,33.1136732 46.0920106,32.6336152 C47.5835289,32.1841585 48.3711846,31.9527361 50.0749788,31.7538276 C51.7098765,31.564482 53.0636015,31.948911 52.8922911,33.0620335 C54.0653953,31.1819657 52.9276704,29.7704805 51.432428,29.7570924 C53.6371192,28.5636415 57.2141561,28.4201979 57.6666391,30.2295001 C57.7020185,30.3710311 57.7020185,30.5240376 57.6517426,30.6827819 C57.6927081,30.1912484 57.0353973,29.9942525 56.681604,30.2103743 C56.5009832,30.321304 56.3222244,30.5393383 56.2347071,30.8224004 C56.0894657,31.3043709 56.2477416,31.8092925 56.6182936,32.126781 C57.3053975,32.7215939 58.3462948,32.5896258 58.9272607,31.9010964 C59.0036056,31.8092925 59.0762263,31.7098383 59.1413988,31.6046463 C59.8285027,33.1538374 62.0294697,32.9262402 62.0965042,31.093987 C61.9214696,31.6639363 61.2064347,31.7366144 60.6701584,31.3445352 C60.3331237,31.0958996 60.0631235,30.6617435 59.7912613,30.1816855 C59.1562953,29.0570875 58.5771915,28.0740206 57.3091217,27.6341268 C55.5178101,27.0106252 52.3634631,27.4103548 50.2630479,28.9671962 C50.5721516,28.0701954 50.5423584,27.1617192 50.1457375,26.4808401 C49.8515304,25.9720934 49.2221507,25.576189 48.6244261,25.4442209 C47.7567014,25.2529627 46.846149,25.7903981 46.6469075,26.6893115 C46.5370454,27.1712821 46.7064938,27.674291 47.1068389,27.966916 C47.3395977,28.1390484 47.6114599,28.2040761 47.8181497,28.1811252 C48.2296672,28.1352232 48.6393227,27.5729242 48.3171845,27.2057085 C48.4512536,27.3013376 48.542495,27.4199177 48.5964951,27.5595361 C48.8404263,28.1600868 48.6914606,28.7969764 48.2985638,29.3784013 C47.6524255,30.3366046 46.6971834,30.8759527 45.6376655,31.1915286" id="Fill-9" fill="#D7B93E"></path>
                                <path d="M96.0390652,19.0959799 C96.1843067,17.9446058 96.1731343,16.7817562 96.0129962,15.6495079 C95.7374098,13.7082375 94.3147882,11.809044 92.5700284,11.2333569 C91.8252003,10.9866339 91.1138894,11.0153226 90.598096,11.4992057 C90.491958,11.59866 90.413751,11.726803 90.3690613,11.8874598 C90.598096,11.4513912 91.2535447,11.65795 91.4323034,12.0404663 C91.5235449,12.2336371 91.5570622,12.5186117 91.4788552,12.7997612 C91.3447861,13.285557 90.942579,13.6202588 90.4621649,13.6776362 C89.5702332,13.7885659 88.7714051,13.0923862 88.6522326,12.1877351 C88.5721636,11.5642335 88.7211292,10.8221518 89.087957,10.3669574 C90.0022335,9.22132103 92.0747177,9.03197545 93.8232016,10.2024754 C93.1584426,9.30164946 92.3540282,8.50219034 91.4229931,7.84234968 C89.9370611,6.78660463 88.2220944,6.63168551 86.6244381,7.30682683 C85.4215407,7.81748612 84.8256783,9.09891581 85.6878168,9.69372869 C83.1516771,9.26722299 83.4775394,6.74261525 85.0863681,5.94124355 C84.5594022,5.96801969 84.049195,6.04261038 83.5613326,6.15927785 C80.9451239,6.78469204 79.3660884,8.48880227 80.0904337,11.2983847 C82.2914007,10.6901837 84.367609,11.0554868 85.533265,12.101669 C88.0898874,14.3967669 88.3934048,19.2681123 90.3839579,18.8817708 C87.36368,19.7749464 86.2538861,17.7093583 85.2483682,15.2459531 C84.4923677,13.3926615 82.8798149,11.8530333 80.7235376,12.5473005 C83.4291256,12.8762645 84.3452642,15.8159025 85.3991959,18.1033501 C86.1142309,19.6544538 87.1271971,20.8287789 88.4474049,20.7350624 C86.1347136,22.3454561 83.9449191,20.6489962 83.2689876,18.2487063 C82.9114701,16.9825773 82.7215389,15.3128935 80.8706411,13.8402056 C81.5149174,14.6740912 81.956228,15.6437701 82.2429869,16.6555258 C82.6694009,18.1664653 82.7252631,19.3274023 83.386298,20.6030943 C84.0100915,21.8080207 85.0379543,22.5003752 85.8014031,22.4525607 C86.0695412,23.3017469 85.5928512,23.8468327 84.9690577,23.8850843 C85.2874717,24.8356374 84.2800917,25.0900107 84.5184367,25.7135124 C84.2800917,25.0900107 83.3714014,25.6083204 82.9729184,24.6902812 C82.4943663,25.1014862 81.7830555,25.0345459 81.4143656,24.2255239 C82.0065039,23.72634 82.2969869,22.5003752 81.956228,21.1826065 C81.5931244,19.7845093 80.8631928,18.8970715 80.1723648,17.4932365 C79.7105714,16.5503338 79.3921573,15.5328404 79.3102263,14.4713576 C78.9303639,16.8448714 79.9005025,18.2008917 80.4796064,19.3752169 C81.5763657,21.605287 81.1015378,24.380443 78.3382256,24.8203367 C79.3679504,23.9654128 79.328847,22.3970958 78.8223639,20.7618385 C78.0775358,18.3481605 76.7964314,15.5557914 78.5579499,13.4232629 C76.520845,14.423543 76.360707,16.6784768 77.0385006,18.5642823 C77.9360184,21.0716768 78.4946395,23.3591244 75.6903617,24.8203367 C77.4053284,23.7091268 74.3943608,19.9336907 74.742568,16.4642676 C74.8915336,14.9992301 75.9938792,13.4175251 77.7553976,12.3197033 C77.0478109,9.10656613 78.7087776,6.7368775 81.1201585,5.46883589 C80.1034682,5.16091025 79.6640196,4.07073872 80.6862962,3.1986015 C80.5671237,3.82592828 81.2188482,4.29068561 82.1815385,4.38822727 C83.2987807,4.50106959 84.3620228,4.41309083 85.561196,4.41309083 C86.4903691,4.41309083 87.4493352,4.53549606 88.4008531,4.79178199 C90.5683029,5.37129423 92.3838213,6.47102866 93.8157533,7.90737746 C94.1006501,8.19235212 94.3706503,8.49262743 94.6220298,8.80437824 C94.6257539,7.7046438 95.5344442,6.96064955 96.6330656,7.74289544 C95.8807892,7.80601063 95.7132029,8.92487088 96.0148583,10.2101257 C96.3109274,11.4609541 96.8192726,12.5511256 97.1563073,13.847856 C97.2922385,14.3680782 97.3965144,14.8959507 97.4747213,15.4314736 C97.6106525,16.3896769 97.6497559,17.3708313 97.5901697,18.3519857 C97.0874107,18.6273974 96.6852036,19.004176 96.3407206,19.4670208 C96.245755,19.3312275 96.1507894,19.2164726 96.0390652,19.0959799" id="Fill-10" fill="#D7B93E"></path>
                                <path d="M91.4930069,27.286037 C92.740594,26.2647184 93.6846636,25.2185362 94.0459052,23.761149 C94.3214916,22.6652398 94.4145951,21.0299825 93.191215,20.4810716 C92.3532834,20.1062056 91.3198344,20.666592 91.3459034,21.6936483 C91.573076,21.2441916 92.1745246,21.1925519 92.6307318,21.5540298 C93.3010771,22.0799898 93.0832149,23.116609 92.4352145,23.5660657 C91.9250072,23.9160681 91.2937654,23.8338271 90.7649375,23.4264473 C90.2733509,23.0496687 89.9884542,22.3687896 90.0573508,21.617145 C90.1914198,20.0985552 91.202524,19.0313347 92.450111,18.7425349 C90.9139031,17.562472 91.440869,14.527205 93.5952842,15.2099966 C93.2899047,15.1545317 92.9696286,15.5485236 92.89887,16.0496199 C92.7722492,16.9561836 94.0291466,18.0750439 94.6883195,18.6889826 C95.3903199,19.3449981 96.0941825,20.0163142 96.2282515,21.0299825 C97.5782524,17.7250414 100.425358,18.348543 100.710255,20.2400863 C99.633978,19.647186 98.6694256,20.6838052 97.6583215,22.0245249 C97.168597,22.6748027 96.7161139,23.3193427 96.2654929,23.9581449 C95.3493544,25.2587004 94.4723193,26.5458679 93.3290082,27.6532526 C92.7573526,27.3988793 92.1186625,27.2783866 91.4930069,27.286037" id="Fill-11" fill="#D7B93E"></path>
                                <path d="M82.5535802,30.7451321 C84.9519266,28.3123283 89.6145505,26.7784378 88.43586,25.4453684 C90.0372404,25.5830743 90.4171028,27.568334 88.6425498,28.7828233 C90.4990338,27.8074067 91.9719314,27.7921061 93.0407597,28.2626011 C94.1300708,28.7426591 94.6272435,29.7314638 94.5806918,30.7393943 C94.2250364,29.2686191 92.8452423,29.6721738 90.7038616,30.3779164 C87.6295836,31.3896721 85.1288233,32.1049776 81.8944073,32.3153616 C79.6003368,32.4664555 77.2913697,32.3536132 75.0140578,31.9768346 C75.814748,31.6650838 76.5390933,31.2462285 77.1312317,30.7336566 C78.8201294,30.9057889 81.1253723,30.5749123 81.5368898,28.5361003 C81.6765451,27.8475709 81.5070967,27.2202442 80.9540619,27.0347237 C82.655994,26.71341 84.0953743,28.7044075 82.5535802,30.7451321" id="Fill-12" fill="#D7B93E"></path>
                                <path d="M57.7975427,24.2509612 C59.0116125,25.0599832 60.1511995,25.7638132 60.8829931,26.2151825 C60.7880275,26.8769358 60.9947173,27.4583606 61.4248555,27.6247552 C61.6650626,27.7146465 61.9332007,27.6630068 62.1827181,27.5042625 C63.002029,31.8439102 66.7354798,31.323688 66.8378936,34.0414665 C68.2623774,32.0294306 67.1544456,28.3783123 63.9889262,26.8884112 C67.351825,27.9039921 70.5396893,25.9455085 70.7296204,23.4591524 C68.9234123,25.4673631 66.8509281,22.4397464 63.0709256,25.3315698 C63.002029,24.9624416 62.815822,24.6774669 62.5346493,24.5684497 C62.2255457,24.4498697 61.8698903,24.5703623 61.5607866,24.8534244 C61.067338,24.5454988 59.9705786,23.8760952 58.7490606,23.0689857 C58.4343707,23.4629776 58.1159567,23.8569694 57.7975427,24.2509612" id="Fill-13" fill="#D7B93E"></path>
                                <path d="M54.0315056,19.261227 C52.9980567,17.8573921 52.849091,16.1953587 54.1004022,15.5393432 C54.2251609,15.4724028 54.3741266,15.4398889 54.5361267,15.4551896 C54.2921955,15.489616 54.1022643,15.7076503 54.0799195,15.956286 C54.0128849,16.7385318 54.7148854,17.117223 55.3368169,16.9680416 C55.7036447,16.8800629 56.0406794,16.6084763 56.2324727,16.2316977 C56.4726797,15.7573775 56.4559211,15.1587394 56.2492313,14.657643 C55.8395758,13.6573628 54.5324025,13.2480704 53.6013674,13.5732093 C52.6014357,13.9212991 52.0204698,14.7245834 51.7728145,15.5680319 C51.4208832,16.7806086 51.6331592,18.4082156 52.502746,19.8082253 C53.0055049,20.6191599 54.1637126,21.6328282 55.4950928,22.6292832 C55.8116448,22.2391166 56.1281967,21.8451248 56.4410245,21.4530455 C55.4057135,20.6765374 54.4988853,19.8981167 54.0315056,19.261227" id="Fill-14" fill="#D7B93E"></path>
                                <path d="M68.0042944,30.9318 C71.3429864,32.9132346 76.2718863,31.645193 77.6851976,29.0306939 C78.2400945,28.0055502 78.0315426,26.6629179 77.0651282,25.9724759 C76.4618174,25.542145 75.7132652,25.5612709 75.1695407,25.857721 C74.5867127,26.1752096 74.2440918,26.7279456 74.3353332,27.3514473 C74.4545057,28.143256 75.2738166,28.7897086 76.0242309,28.3918917 C76.5344382,28.1183925 76.7485762,27.5407928 76.4469209,27.1372381 C77.1973352,28.0304137 76.4115415,29.4093851 75.1304372,29.4495493 C74.0988503,29.4801506 72.8289184,28.3058255 71.9407109,27.7435265 C71.1623655,27.2500804 70.3858823,26.8637389 69.4920886,26.6839563 C69.3524333,26.7853231 69.2071918,26.8809522 69.054502,26.9727561 C68.2873291,27.4279505 67.3711906,27.7301384 66.3824313,27.814292 C67.0546386,28.5391604 67.5387769,29.3749586 67.8180874,30.22797 C67.8944323,30.461305 67.9577427,30.6965525 68.0042944,30.9318" id="Fill-15" fill="#D7B93E"></path>
                                <path d="M46.0558864,12.6035304 C44.8418166,11.7945083 43.7003676,11.0887657 42.9704361,10.6373965 C43.0654016,9.9775558 42.8587119,9.39613099 42.4267116,9.22973639 C42.1883666,9.13984505 41.9202285,9.18957218 41.670711,9.34831645 C40.8495381,5.01058133 37.1179493,5.52889095 37.0155355,2.81111247 C35.5910517,4.82314833 36.6989835,8.47617923 39.8645029,9.96608031 C36.499742,8.94858689 33.3137399,10.9089831 33.1238087,13.3934266 C34.9300168,11.3871285 37.002501,14.4147452 40.7825035,11.5210092 C40.8514001,11.8901374 41.0376072,12.1770247 41.3187798,12.2860418 C41.6278834,12.4046219 41.9835388,12.2841292 42.2926425,11.9991546 C42.7860911,12.3070802 43.8828505,12.9783964 45.1025065,13.7855058 C45.4190584,13.391514 45.7374724,12.9975222 46.0558864,12.6035304" id="Fill-16" fill="#D7B93E"></path>
                                <path d="M49.8219235,17.5923083 C50.8553725,18.9961432 51.0043381,20.6600892 49.7530269,21.3141921 C49.6264061,21.3811325 49.4774405,21.4136464 49.3173024,21.3983457 C49.5612336,21.3658318 49.7511648,21.1458849 49.7735097,20.8991619 C49.8405442,20.1150034 49.1385437,19.7382249 48.5166122,19.8854936 C48.1497844,19.9734724 47.8127497,20.2469716 47.6209565,20.6237501 C47.3807494,21.0961578 47.395646,21.6967084 47.6041978,22.1958922 C48.0138533,23.1961724 49.3191645,23.6054649 50.2520617,23.280326 C51.2519934,22.9322362 51.8329593,22.1289519 52.0787526,21.2855034 C52.4306839,20.0729266 52.2202699,18.4453197 51.3506831,17.0453099 C50.8479242,16.2343753 49.6897165,15.2207071 48.3583363,14.224252 C48.0417843,14.6144187 47.7252324,15.0084105 47.4124046,15.4004897 C48.4477156,16.1789105 49.3545438,16.9573312 49.8219235,17.5923083" id="Fill-17" fill="#D7B93E"></path>
                                <path d="M35.8491347,5.92269151 C32.5104428,3.94125695 27.5815429,5.20738598 26.1682316,7.82379764 C25.6133346,8.84702881 25.8200244,10.1915737 26.7883009,10.8820157 C27.3916117,11.3123465 28.1401639,11.2932207 28.6838884,10.9967705 C29.2667164,10.679282 29.6093373,10.1265459 29.5180959,9.5030443 C29.3989234,8.70932293 28.5796125,8.06478292 27.8291982,8.4625999 C27.318991,8.73418649 27.1048529,9.31369872 27.4046462,9.71725344 C26.656094,8.82407783 27.4418876,7.4431939 28.7229919,7.40494226 C29.7545788,7.37434096 31.0245107,8.54866607 31.9108561,9.11096507 C32.6910636,9.60249855 33.4675469,9.99075262 34.3613406,10.1705353 C34.5009958,10.0672559 34.6462373,9.9716268 34.7989271,9.88173546 C35.5661,9.42654104 36.4822386,9.12244056 37.4709979,9.03828697 C36.7969284,8.31533112 36.3146522,7.47953295 36.0353417,6.62652154 C35.9589968,6.39318659 35.8938244,6.15793905 35.8491347,5.92269151" id="Fill-18" fill="#D7B93E"></path>
                                <path d="M21.2998489,6.10840318 C18.9015025,8.54120701 14.2370166,10.0750975 15.4175691,11.4100794 C13.8161887,11.270461 13.4363264,9.28711384 15.2108793,8.07071193 C13.3543953,9.04804114 11.8814977,9.06142921 10.8126694,8.59093413 C9.72335832,8.10896356 9.2243235,7.12398402 9.27273733,6.11414093 C9.62839274,7.58491619 11.0081868,7.18136147 13.1495675,6.47561885 C16.2219834,5.46386318 18.7227437,4.75047023 21.9590218,4.53817367 C24.2530923,4.38707972 26.5620594,4.49992204 28.8393713,4.8786132 C28.0386811,5.18845142 27.3143358,5.60921938 26.7221975,6.11987867 C25.0332998,5.94774633 22.7280568,6.27862295 22.3146772,8.31934754 C22.176884,9.00596434 22.3444703,9.63329111 22.8993673,9.81881153 C21.1974351,10.1401252 19.7580548,8.14912777 21.2998489,6.10840318" id="Fill-19" fill="#D7B93E"></path>
                                <path d="M12.3604222,9.56845459 C11.1128351,10.5897732 10.1687655,11.6340427 9.80566183,13.0933425 C9.53193751,14.1892518 9.43883399,15.8245091 10.6622141,16.37342 C11.5001457,16.748286 12.5335947,16.185987 12.5075257,15.1589307 C12.2803532,15.6102999 11.6789045,15.6600271 11.2226973,15.3004617 C10.5504899,14.7725892 10.7702142,13.7359699 11.4182146,13.2884258 C11.9284219,12.9365108 12.5596637,13.0206644 13.0884916,13.4261317 C13.5800782,13.8048229 13.8631129,14.4857019 13.7960783,15.2373465 C13.6601472,16.7559363 12.6509051,17.8231569 11.401456,18.1119567 C12.939526,19.290107 12.4125602,22.3272866 10.2562828,21.6425824 C10.5635244,21.6999598 10.8838005,21.305968 10.9545592,20.8048716 C11.0811799,19.8983079 9.82428253,18.7794477 9.16510967,18.1635964 C8.46310919,17.5094935 7.75924665,16.8362648 7.62517759,15.8245091 C6.27517667,19.1294501 3.42807129,18.5059485 3.14317455,16.6124927 C4.21945114,17.205393 5.18400352,16.1706864 6.19324558,14.8280541 C6.68297005,14.1796889 7.13731519,13.5351489 7.58793619,12.8963466 C8.50407474,11.5938785 9.38110982,10.3067111 10.5244209,9.19932634 C11.0942144,9.45561228 11.7329045,9.57419234 12.3604222,9.56845459" id="Fill-20" fill="#D7B93E"></path>
                                <path d="M7.81436393,17.7577466 C7.66726038,18.9110333 7.68029487,20.0719703 7.84043291,21.2023061 C8.1160193,23.145489 9.53864096,25.0446826 11.2834008,25.6222822 C12.0263668,25.8670927 12.7376776,25.8384039 13.2553331,25.3545208 C13.3614711,25.2550665 13.4396781,25.1269236 13.4843678,24.9662667 C13.2553331,25.4023353 12.5998844,25.1957765 12.4211257,24.8132602 C12.3280222,24.6200894 12.296367,24.3370274 12.3727118,24.0539653 C12.508643,23.5700821 12.9108501,23.2353803 13.3912643,23.1760903 C14.2831959,23.0670732 15.082024,23.7613403 15.2011965,24.6659914 C15.2812655,25.289493 15.1322999,26.0315747 14.7654721,26.4867691 C13.8511956,27.6343181 11.7768494,27.8217511 10.0302275,26.6512511 C10.6949866,27.5520771 11.4975388,28.3515362 12.430436,29.0113768 C13.9163681,30.0671219 15.6313347,30.2201284 17.228991,29.5468997 C18.4318884,29.038153 19.0277508,27.7548107 18.1656123,27.1599978 C20.6998899,27.5865035 20.3758897,30.1111113 18.767061,30.912483 C19.2940269,30.8857068 19.8042341,30.8130287 20.2920965,30.6944487 C22.9083052,30.0690345 24.4873408,28.3649243 23.7629954,25.5553419 C21.5620284,26.1635428 19.4858201,25.7982397 18.3201642,24.7520576 C15.7635417,22.4569596 15.4600243,17.5856142 13.4676091,17.9719557 C16.4897491,17.0787801 17.599543,19.1443683 18.6050609,21.6077734 C19.3610614,23.4629776 20.9736142,25.0006932 23.1298916,24.3064261 C20.4243035,23.977462 19.5063029,21.0378241 18.4542332,18.752289 C17.7391982,17.1992727 16.726232,16.0249476 15.4060243,16.1186641 C17.7187155,14.5082704 19.9085101,16.2066429 20.5844416,18.6050202 C20.940097,19.8711493 21.1318902,21.540833 22.982788,23.0154335 C22.3385117,22.1796353 21.8972011,21.2099564 21.6104423,20.1982007 C21.1840282,18.6872612 21.1281661,17.5263242 20.4671311,16.2506323 C19.8433376,15.0476184 18.8154748,14.3533513 18.052026,14.4011658 C17.7838879,13.5519796 18.2605779,13.0068938 18.8843714,12.9705548 C18.5659574,12.0200017 19.5733374,11.7656284 19.3349924,11.1402142 C19.5733374,11.7656284 20.4820277,11.2454062 20.8805107,12.1634453 C21.3590628,11.7541529 22.0685115,11.8191806 22.4390635,12.6282027 C21.8469252,13.1273865 21.5564422,14.3533513 21.8972011,15.6730326 C22.2603048,17.0692172 22.9902363,17.9566551 23.6810644,19.3624026 C24.1428578,20.3033927 24.4612718,21.3208861 24.5432029,22.3823689 C24.9230652,20.0088552 23.9529266,18.6547474 23.3738228,17.4785097 C22.2770634,15.2484395 22.7518913,12.4732836 25.5152035,12.0333898 C24.4836166,12.8902264 24.5245822,14.4566307 25.0292032,16.091888 C25.7758934,18.505566 27.0569977,21.2979352 25.2954792,23.4304637 C27.3325841,22.4301835 27.49086,20.1752498 26.8149285,18.2894443 C25.9174107,15.7820498 25.3587896,13.4946021 28.1630674,12.0333898 C26.4481007,13.1445997 29.4590683,16.9219484 29.1108611,20.3894589 C28.9618955,21.8525838 27.8595499,23.4362014 26.0961694,24.5340233 C26.8037561,27.7471604 25.1446516,30.116849 22.7332706,31.3848906 C23.749961,31.6928163 24.1894095,32.7829878 23.167133,33.655125 C23.2863055,33.0277982 22.6345809,32.5630409 21.6718906,32.4654993 C20.5527864,32.3526569 19.4914063,32.4406357 18.290371,32.4406357 C17.3630601,32.4406357 16.4022318,32.3182305 15.452576,32.0638571 C13.2851263,31.4824323 11.4696078,30.3826979 10.0376758,28.9463491 C9.75277903,28.6613744 9.48277885,28.3610991 9.2295373,28.0493483 C9.22767523,29.1509953 8.31898496,29.893077 7.21850145,29.1108311 C7.97263989,29.0477159 8.14022622,27.9288556 7.83857084,26.6436008 C7.54250167,25.3927724 7.0341565,24.3026009 6.69525972,23.0058706 C6.56119066,22.4856484 6.45505266,21.9577758 6.37870778,21.4241656 C6.24277665,20.4640496 6.20367318,19.4828952 6.26325942,18.5017408 C6.76601839,18.2263291 7.16822556,17.8495505 7.51270855,17.3867057 C7.60767413,17.522499 7.70263971,17.6372539 7.81436393,17.7577466" id="Fill-21" fill="#D7B93E"></path>
                                <path d="M65.2221753,19.3985504 C66.9259696,19.7638534 67.7080391,20.7736965 67.3225905,22.0551262 C69.1492814,20.8463746 68.687488,19.0772366 67.335625,18.4250463 C68.5701776,18.3523682 70.8959033,18.7348845 71.0690758,20.2209605 C71.0839724,20.3682292 71.0653517,20.5174106 70.994593,20.666592 C71.098869,20.1827088 70.4713513,19.9015593 70.093351,20.0679539 C69.9015578,20.1540201 69.694868,20.3452783 69.5738334,20.6111271 C69.3671436,21.0682341 69.4583851,21.5922815 69.7842474,21.9594971 C70.3875581,22.6403762 71.4377657,22.6518517 72.1006627,22.0493885 C72.558732,21.6324457 72.9199736,20.9687799 72.9348702,20.3797047 C72.9516288,19.6395356 72.6015596,18.8859785 71.9889385,18.2816027 C72.1658352,18.2280504 72.3352836,18.1591975 72.4935596,18.0750439 C73.2961118,17.6523633 73.7355604,16.6788593 73.3985257,15.7895088 C73.1843876,15.2348602 72.6853528,14.9097213 72.2030766,14.8580816 C71.6854211,14.8026167 71.2236277,15.0110881 71.0169379,15.4605448 C70.754386,16.0343193 71.0150758,16.8280407 71.6798349,16.9045439 C72.1304559,16.9580962 72.5177665,16.6750341 72.4935596,16.2753046 C72.5568699,16.8261281 72.0559731,17.2449834 71.259007,17.3425251 C70.5625927,17.4285913 70.0151441,17.2201199 69.3392126,17.2009941 C68.8587985,17.187606 68.3504533,17.2315954 67.812315,17.3176616 C68.3299705,16.7802261 68.7805915,16.1682 69.1492814,15.5217474 C69.8922474,14.2231045 70.4471444,13.1042442 71.4694209,12.2397573 C72.7319045,11.1725368 74.5250782,11.4575115 74.5027333,12.9015106 C75.1451476,9.4971153 71.8716281,9.35940942 70.8325929,10.6982166 C71.1044552,9.74766349 71.419145,8.82771173 71.9330764,7.97852549 C72.506594,7.02988501 73.1341117,6.34135562 73.7281121,5.96266446 C74.4319747,5.51512036 75.21032,5.41566612 75.5641134,5.98944061 C75.2159062,5.63561301 74.6423886,6.03342998 74.573492,6.45993569 C74.5418368,6.67414483 74.5902506,6.95911949 74.7466645,7.20966768 C75.0185268,7.63999855 75.4989409,7.82360638 75.979355,7.73754021 C76.8787349,7.57305819 77.437356,6.66266934 77.2921145,5.7503679 C77.1952869,5.12112855 76.8172866,4.51101501 76.3312863,4.17822581 C74.6498369,3.02302651 71.4247312,4.3044562 70.4974203,7.82934413 C70.5272134,5.47686873 69.0636262,4.80172742 67.6689356,5.54380909 C68.5254879,5.57632298 68.5683155,6.95720691 68.3597636,8.91569049 C68.1493497,10.8913873 68.6241776,12.4405784 68.3765223,14.4870408 C68.1716946,11.610518 65.6523135,11.2528652 64.7436233,12.794406 C65.4009341,12.4004142 66.1755553,13.0583423 66.5107279,14.0031576 C66.7937626,14.7930538 66.7099694,15.7378691 66.3152105,16.4914263 C65.7677619,17.5471713 64.6058301,18.1324213 63.4569327,18.0119287 C62.9318289,17.9583764 62.4402424,17.7326918 62.0827249,17.292798 C61.6674832,16.7802261 61.5427245,16.10891 61.6153453,15.6097262 C61.7531385,14.6496102 62.985829,14.1638145 63.4718293,14.9996126 C63.2446567,14.5348553 62.6134149,14.6591731 62.4067251,15.1067172 C62.2056215,15.5485236 62.5035528,16.1777629 62.8908634,16.4110979 C63.7995537,16.9561836 64.9540372,16.2523536 65.0266579,15.1870456 C65.1030028,14.047147 63.993209,12.7542418 62.1944491,13.4657222 C62.907622,12.6490498 63.5239673,12.4444036 64.0397607,11.4441234 C64.1682436,11.1954878 64.2650712,10.9296389 64.3209333,10.6427517 C64.5592783,9.38809815 63.993209,8.16595849 62.8256909,7.65912436 C61.633966,7.14081474 60.1554822,7.55010721 59.565206,8.64027873 C59.0717573,9.55066759 59.4032058,10.837835 60.3714824,11.1725368 C61.3565175,11.5148889 62.376932,10.5968497 61.8797592,9.68072314 C61.6898281,9.32880812 61.2838968,9.13563737 60.9412759,9.33645844 C61.9151386,8.62115292 63.1832084,9.73236284 62.3732079,11.1342852 C61.980311,11.8132516 61.2224485,12.2952222 60.7178274,12.9244616 C59.885482,13.9629934 59.6638957,15.1430562 59.911551,16.2179271 C59.9953442,16.579405 60.123827,16.917932 60.2895513,17.2258576 C59.9283096,17.1990815 59.593137,17.3042735 59.3566541,17.5548217 C59.0028607,17.9277751 58.9712055,18.5245006 59.2188609,19.0791492 C56.9862387,21.7261622 54.7536165,24.9010477 52.2249251,27.2133589 C53.0758912,26.9226465 53.9566504,26.7505141 54.8504441,26.6950492 C56.7274109,24.6275485 58.4684466,22.2980241 60.2727926,20.1444572 C60.8276896,20.3950054 61.4198279,20.3471908 61.7792075,19.9665871 C62.0361731,19.6950005 62.1236904,19.3067464 62.0566559,18.9012791 C62.4123113,19.0657612 62.7958978,19.1747783 63.199967,19.2225928 C63.8907951,19.3010087 64.4624507,19.2359809 65.2221753,19.3985504" id="Fill-22" fill="#D7B93E"></path>
                                <path d="M38.6312538,17.4559412 C36.9274596,17.0887255 36.1453901,16.080795 36.5308386,14.7993653 C34.7022856,16.0081169 35.1659411,17.7772549 36.5178041,18.4294452 C35.2832515,18.5002108 32.9556638,18.1176944 32.7843533,16.6335311 C32.7675947,16.4862623 32.7880774,16.337081 32.856974,16.185987 C32.7545602,16.6698702 33.3802158,16.9529322 33.7600781,16.7865376 C33.9518713,16.7004715 34.1585611,16.5092133 34.2795957,16.2414519 C34.4862855,15.7843449 34.395044,15.2622101 34.0691817,14.8949944 C33.465871,14.2141154 32.4156634,14.2007273 31.7527664,14.8051031 C31.2946971,15.2220459 30.9334555,15.8837991 30.9185589,16.4747868 C30.9018003,17.2149559 31.2518695,17.9685131 31.8644906,18.5709763 C31.6875939,18.6264412 31.5181455,18.6952941 31.3598696,18.7775351 C30.5573173,19.2002156 30.1178687,20.1756323 30.4549034,21.0649827 C30.6690415,21.6196314 31.1662143,21.9447703 31.6503525,21.99641 C32.168008,22.0499623 32.6298015,21.8434034 32.8364913,21.3939468 C33.0990432,20.8201723 32.8383533,20.0264509 32.1735943,19.9480351 C31.7229733,19.8963954 31.3356627,20.1794574 31.3598696,20.579187 C31.2965592,20.0264509 31.7974561,19.6095081 32.5944221,19.5100539 C33.2889743,19.4239877 33.838285,19.6343717 34.5142165,19.6515849 C34.9946307,19.6668856 35.5029758,19.6209836 36.0411141,19.53683 C35.5234586,20.0723529 35.0728376,20.684379 34.7041477,21.3327441 C33.9611817,22.6294745 33.4062847,23.7502473 32.3840082,24.6147342 C31.1215246,25.6800422 29.3283509,25.3969801 29.3488337,23.952981 C28.7082816,27.3573763 31.981801,27.4950821 33.0208362,26.156275 C32.748974,27.1068281 32.4342841,28.0248672 31.9203527,28.8759661 C31.3468351,29.8246065 30.7193174,30.5112234 30.125317,30.8899145 C29.4214545,31.3393712 28.6431091,31.4388254 28.2893158,30.865051 C28.6375229,31.216966 29.2110405,30.819149 29.2799371,30.3945559 C29.3115923,30.1784341 29.2631785,29.8934595 29.1049025,29.6429113 C28.8349023,29.2125804 28.3544882,29.0308852 27.8740741,29.1169513 C26.9746942,29.2814334 26.414211,30.1899096 26.5613146,31.1041237 C26.6581422,31.733363 27.0361425,32.3434765 27.5221428,32.6762657 C29.2035922,33.831465 32.4286979,32.5500354 33.3560089,29.0251474 C33.3262157,31.3776228 34.7898029,32.0527641 36.1844935,31.3087699 C35.3279412,31.2781686 35.2851136,29.8972847 35.4918034,27.9388011 C35.7040794,25.9611917 35.2292515,24.4139131 35.4769068,22.3674508 C35.6817346,25.2439736 38.2011156,25.6016263 39.1098059,24.058173 C38.450633,24.4540774 37.6778739,23.7942367 37.3427012,22.851334 C37.0578045,22.0595252 37.1434597,21.1166224 37.5363565,20.3630653 C38.0856672,19.3073202 39.2475991,18.7201577 40.3964964,18.8406503 C40.9216002,18.8961152 41.4131867,19.1217998 41.7707042,19.5616936 C42.1859459,20.0742654 42.3107046,20.7455816 42.2380838,21.2428528 C42.1002906,22.2048814 40.8676002,22.6906771 40.3797378,21.8548789 C40.6087724,22.3196363 41.2400142,22.1934059 41.446704,21.7458618 C41.6478076,21.305968 41.3498763,20.6767287 40.9625657,20.4433937 C40.0538755,19.8963954 38.8975299,20.602138 38.8267712,21.6674459 C38.7504263,22.8073446 39.8583581,24.1002498 41.65898,23.3887694 C40.9458071,24.2035292 40.3275998,24.410088 39.8136684,25.4103682 C39.6833235,25.6570912 39.5883579,25.9248526 39.5324958,26.2098273 C39.2941508,27.4663934 39.8602202,28.6866205 41.0277382,29.1953672 C42.2194631,29.7117642 43.6979469,29.3024718 44.2863611,28.2142128 C44.7798097,27.3019114 44.4502233,26.0166565 43.4819468,25.6800422 C42.4969116,25.3396026 41.4746351,26.2576418 41.9736699,27.1718558 C42.163601,27.5256834 42.5695323,27.7188542 42.9121533,27.5180331 C41.9382905,28.2333386 40.6702207,27.1202161 41.4783592,25.7182938 C41.8731181,25.0412399 42.6309807,24.5592693 43.1356017,23.93003 C43.9679471,22.8914982 44.1895334,21.7114353 43.9418781,20.6346519 C43.8580849,20.2750865 43.7296021,19.9365596 43.5620158,19.6267213 C43.9232574,19.6554101 44.2602921,19.5502181 44.496775,19.2996699 C44.8505684,18.9248039 44.8822236,18.3280784 44.6345682,17.7753423 C46.8671904,15.1283294 49.0979506,11.9534439 51.6266419,9.6411327 C50.7756758,9.92993252 49.8967787,10.1020649 49.002985,10.1575297 C47.1260182,12.2250305 45.3849825,14.5564675 43.5787744,16.7100344 C43.0257396,16.4575736 42.4336012,16.5053881 42.0742217,16.8859919 C41.817256,17.1575785 41.7297387,17.5477451 41.7967732,17.9512998 C41.4411178,17.7887304 41.0556692,17.6778007 40.6534621,17.6318987 C39.962634,17.5515703 39.3909785,17.6185106 38.6312538,17.4559412" id="Fill-23" fill="#D7B93E"></path>
                                <path d="M58.2157637,5.66200663 C59.5825232,5.25462675 60.9716276,5.12074603 62.3123182,5.38085713 C62.4556976,5.40954586 62.6046632,5.44397233 62.7573529,5.48604912 C63.8969399,5.79971251 64.7981819,6.43468961 65.3325961,7.37759235 C65.8763206,8.33579574 66.0643897,9.63826382 65.7794929,11.2696959 C66.2729415,11.1625914 66.7868729,11.2218814 67.2486663,11.4265276 C67.5726666,9.46613148 67.3119767,7.85573775 66.6099763,6.61829744 C65.8651482,5.31009161 64.6548025,4.43795439 63.1409394,4.0210116 C62.9659048,3.97319706 62.7796978,3.92920768 62.5841804,3.89286863 C60.9846621,3.58111783 59.3516265,3.7398621 57.7614185,4.21992009 C56.2699003,4.66937677 55.4822446,4.90079915 53.7784503,5.09970764 C52.1416906,5.28905322 50.7898276,4.90653689 50.961138,3.79150181 C49.7880338,5.67156954 50.9257587,7.08305478 52.4210011,7.09644285 C50.21631,8.28989378 46.639273,8.4333374 46.1849279,6.62403519 C46.1514106,6.48059157 46.1514106,6.32949762 46.2016865,6.17075334 C46.160721,6.6641994 46.8180318,6.85928273 47.1718251,6.643161 C47.3524459,6.53223127 47.5312047,6.31228438 47.6168599,6.03304747 C47.7639635,5.5510769 47.6056875,5.04424277 47.2351355,4.72675422 C46.5461695,4.13194134 45.5071343,4.26390947 44.9261684,4.95243885 C44.8498235,5.04424277 44.7772028,5.14369701 44.7120304,5.248889 C44.0249264,3.69969789 41.8239594,3.9272951 41.7569249,5.7595483 C41.9319595,5.18959897 42.6469945,5.11692087 43.1832707,5.5090001 C43.5203054,5.75763571 43.7903056,6.19179174 44.0621678,6.67376231 C44.6952717,7.79644772 45.2762376,8.77951468 46.5443075,9.21940845 C48.335619,9.84291006 51.489966,9.4431805 53.5903812,7.88633906 C53.2794155,8.78333984 53.3110707,9.69181611 53.7076916,10.3726952 C54.0018987,10.8814419 54.6312785,11.2773463 55.229003,11.4093144 C56.0967277,11.6024851 57.005418,11.0650497 57.2065216,10.1642238 C57.3163837,9.6822532 57.1469353,9.17924423 56.7465902,8.88661925 C56.5138315,8.7144869 56.2419692,8.64945913 56.0352794,8.6724101 C55.6237619,8.71831206 55.2141064,9.28061106 55.5362446,9.64782673 C55.4021755,9.55411023 55.3109341,9.43361759 55.2569249,9.29591171 C55.0130029,8.69153592 55.1619685,8.05655882 55.5530032,7.47513401 C56.2010037,6.51693062 57.1562457,5.97949518 58.2157637,5.66200663" id="Fill-24" fill="#D7B93E"></path>
                                <path d="M85.9121963,0 L103.853243,0 L103.853243,18.4258113 C103.853243,15.3063907 103.087932,12.3629276 101.739793,9.78094241 L101.739793,2.16886756 L94.3306158,2.16886756 C91.8149589,0.786071046 88.9492328,0 85.9121963,0" id="Fill-77" fill="#D7B93E"></path>
                                <path d="M85.9121963,0 L103.853243,0 L103.853243,18.4258113 C103.853243,15.3063907 103.087932,12.3629276 101.739793,9.78094241 L101.739793,2.16886756 L94.3306158,2.16886756 C91.8149589,0.786071046 88.9492328,0 85.9121963,0 Z" id="Stroke-78" stroke="#000000" stroke-width="0.283" stroke-linecap="round" stroke-linejoin="round"></path>
                                <path d="M85.9121963,36.8564041 L103.853243,36.8564041 L103.853243,18.4305928 C103.853243,21.5500134 103.087932,24.4934765 101.739793,27.0773743 L101.739793,34.6875366 L94.3306158,34.6875366 C91.8149589,36.0722457 88.9492328,36.8564041 85.9121963,36.8564041" id="Fill-83" fill="#D7B93E"></path>
                                <path d="M85.9121963,36.8564041 L103.853243,36.8564041 L103.853243,18.4305928 C103.853243,21.5500134 103.087932,24.4934765 101.739793,27.0773743 L101.739793,34.6875366 L94.3306158,34.6875366 C91.8149589,36.0722457 88.9492328,36.8564041 85.9121963,36.8564041 Z" id="Stroke-84" stroke="#000000" stroke-width="0.283" stroke-linecap="round" stroke-linejoin="round"></path>
                            </g>
                            <g id="Group-3" transform="translate(0.000000, 18.821393)">
                                <path d="M8.13409806,0 C7.99359167,5.09819618 6.03872019,8.65758973 3.91279745,11.6680366 C2.68183932,13.4141542 1.68607665,14.7982006 0,14.2521738 C2.03734262,16.553078 4.97881331,16.2902843 6.57325536,13.5893499 C5.38506004,17.2772204 7.95999232,17.6655709 8.13409806,19.0028985 C8.3082038,17.6655709 10.8831361,17.2772204 9.69494076,13.5893499 C11.2893828,16.2902843 14.2308535,16.553078 16.2681961,14.2521738 C14.5821195,14.7982006 13.5863568,13.4141542 12.3553987,11.6680366 C10.2294759,8.65758973 8.27460445,5.09819618 8.13409806,0" id="Fill-98" fill="#D7B93E"></path>
                                <path d="M8.13409806,0 C7.99359167,5.09819618 6.03872019,8.65758973 3.91279745,11.6680366 C2.68183932,13.4141542 1.68607665,14.7982006 0,14.2521738 C2.03734262,16.553078 4.97881331,16.2902843 6.57325536,13.5893499 C5.38506004,17.2772204 7.95999232,17.6655709 8.13409806,19.0028985 C8.3082038,17.6655709 10.8831361,17.2772204 9.69494076,13.5893499 C11.2893828,16.2902843 14.2308535,16.553078 16.2681961,14.2521738 C14.5821195,14.7982006 13.5863568,13.4141542 12.3553987,11.6680366 C10.2294759,8.65758973 8.27460445,5.09819618 8.13409806,0 Z" id="Stroke-99" stroke="#000000" stroke-width="0.283" stroke-linecap="round" stroke-linejoin="round"></path>
                            </g>
                            <g id="Group-3-Copy" transform="translate(8.134098, 9.808496) scale(1, -1) translate(-8.134098, -9.808496) translate(0.000000, 0.307047)">
                                <path d="M8.13409806,0 C7.99359167,5.09819618 6.03872019,8.65758973 3.91279745,11.6680366 C2.68183932,13.4141542 1.68607665,14.7982006 0,14.2521738 C2.03734262,16.553078 4.97881331,16.2902843 6.57325536,13.5893499 C5.38506004,17.2772204 7.95999232,17.6655709 8.13409806,19.0028985 C8.3082038,17.6655709 10.8831361,17.2772204 9.69494076,13.5893499 C11.2893828,16.2902843 14.2308535,16.553078 16.2681961,14.2521738 C14.5821195,14.7982006 13.5863568,13.4141542 12.3553987,11.6680366 C10.2294759,8.65758973 8.27460445,5.09819618 8.13409806,0" id="Fill-98" fill="#D7B93E"></path>
                                <path d="M8.13409806,0 C7.99359167,5.09819618 6.03872019,8.65758973 3.91279745,11.6680366 C2.68183932,13.4141542 1.68607665,14.7982006 0,14.2521738 C2.03734262,16.553078 4.97881331,16.2902843 6.57325536,13.5893499 C5.38506004,17.2772204 7.95999232,17.6655709 8.13409806,19.0028985 C8.3082038,17.6655709 10.8831361,17.2772204 9.69494076,13.5893499 C11.2893828,16.2902843 14.2308535,16.553078 16.2681961,14.2521738 C14.5821195,14.7982006 13.5863568,13.4141542 12.3553987,11.6680366 C10.2294759,8.65758973 8.27460445,5.09819618 8.13409806,0 Z" id="Stroke-99" stroke="#000000" stroke-width="0.283" stroke-linecap="round" stroke-linejoin="round"></path>
                            </g>
                        </g>
                        <g id="Group" transform="translate(118.107209, 0.000000)">
                            <path d="M24.5613049,1.99498143 C12.3535656,1.99498143 2.36238505,10.4340695 2.36238505,20.7414736 C2.36238505,31.0488776 12.3556488,39.4897249 24.5613049,39.4897249 L174.356099,39.4897249 C186.561755,39.4897249 196.557102,31.0488776 196.557102,20.7414736 C196.557102,10.4340695 186.563839,1.99498143 174.356099,1.99498143 L24.5613049,1.99498143 Z M24.5613049,0 L174.356099,0 C187.867942,0 198.917404,9.33278348 198.917404,20.7414736 C198.917404,32.1501636 187.865859,41.4847063 174.356099,41.4847063 L24.5613049,41.4847063 C11.0536288,41.4847063 0,32.1501636 0,20.7414736 C0,9.33278348 11.0494623,0 24.5613049,0 L24.5613049,0 Z" id="Fill-63" fill="#D7B93E"></path>
                            <path d="M24.5613049,1.99498143 C12.3535656,1.99498143 2.36238505,10.4340695 2.36238505,20.7414736 C2.36238505,31.0488776 12.3556488,39.4897249 24.5613049,39.4897249 L174.356099,39.4897249 C186.561755,39.4897249 196.557102,31.0488776 196.557102,20.7414736 C196.557102,10.4340695 186.563839,1.99498143 174.356099,1.99498143 L24.5613049,1.99498143 Z M24.5613049,0 L174.356099,0 C187.867942,0 198.917404,9.33278348 198.917404,20.7414736 C198.917404,32.1501636 187.865859,41.4847063 174.356099,41.4847063 L24.5613049,41.4847063 C11.0536288,41.4847063 0,32.1501636 0,20.7414736 C0,9.33278348 11.0494623,0 24.5613049,0 Z" id="Stroke-64" stroke="#000000" stroke-width="0.283" stroke-linecap="round" stroke-linejoin="round"></path>
                        </g>
                    </g>
                </g>
            </g>
        </g>
    </g>
</svg>